<?xml version="1.0" encoding="utf-8"?>
<!DOCTYPE svg PUBLIC "-//W3C//DTD SVG 1.1//EN" "http://www.w3.org/Graphics/SVG/1.1/DTD/svg11.dtd">
<svg version="1.1" baseProfile="full"
 xmlns="http://www.w3.org/2000/svg"
 width="121px" height="87px" viewBox="0 0 121 87">
<path fill-rule="evenodd"  fill="rgb( 124, 197, 118 )"
 d="M117.000,87.000 C117.000,87.000 4.000,87.000 4.000,87.000 C1.791,87.000 0.000,85.209 0.000,83.000 C0.000,83.000 0.000,4.000 0.000,4.000 C0.000,1.791 1.791,0.000 4.000,0.000 C4.000,0.000 117.000,0.000 117.000,0.000 C119.209,0.000 121.000,1.791 121.000,4.000 C121.000,4.000 121.000,83.000 121.000,83.000 C121.000,85.209 119.209,87.000 117.000,87.000 ZM23.952,5.250 C23.952,5.250 8.455,5.250 8.455,5.250 C7.085,5.250 5.975,6.371 5.975,7.755 C5.975,7.755 5.975,22.784 5.975,22.784 C5.975,22.784 10.934,22.784 10.934,22.784 C10.934,22.784 10.934,12.765 10.934,12.765 C10.934,11.381 12.045,10.260 13.414,10.260 C13.414,10.260 23.952,10.260 23.952,10.260 C23.952,10.260 23.952,5.250 23.952,5.250 ZM23.952,76.740 C23.952,76.740 13.414,76.740 13.414,76.740 C12.045,76.740 10.934,75.619 10.934,74.235 C10.934,74.235 10.934,63.590 10.934,63.590 C10.934,63.590 5.975,63.590 5.975,63.590 C5.975,63.590 5.975,79.245 5.975,79.245 C5.975,80.629 7.085,81.750 8.455,81.750 C8.455,81.750 23.952,81.750 23.952,81.750 C23.952,81.750 23.952,76.740 23.952,76.740 ZM72.000,42.000 C72.000,42.000 62.000,42.000 62.000,42.000 C62.000,42.000 62.000,32.000 62.000,32.000 C62.000,32.000 59.000,32.000 59.000,32.000 C59.000,32.000 59.000,42.000 59.000,42.000 C59.000,42.000 49.000,42.000 49.000,42.000 C49.000,42.000 49.000,45.000 49.000,45.000 C49.000,45.000 59.000,45.000 59.000,45.000 C59.000,45.000 59.000,55.000 59.000,55.000 C59.000,55.000 62.000,55.000 62.000,55.000 C62.000,55.000 62.000,45.000 62.000,45.000 C62.000,45.000 72.000,45.000 72.000,45.000 C72.000,45.000 72.000,42.000 72.000,42.000 ZM115.772,7.755 C115.772,6.371 114.661,5.250 113.292,5.250 C113.292,5.250 97.175,5.250 97.175,5.250 C97.175,5.250 97.175,10.260 97.175,10.260 C97.175,10.260 108.333,10.260 108.333,10.260 C109.702,10.260 110.813,11.381 110.813,12.765 C110.813,12.765 110.813,22.784 110.813,22.784 C110.813,22.784 115.772,22.784 115.772,22.784 C115.772,22.784 115.772,7.755 115.772,7.755 ZM115.772,63.590 C115.772,63.590 110.813,63.590 110.813,63.590 C110.813,63.590 110.813,74.235 110.813,74.235 C110.813,75.619 109.702,76.740 108.333,76.740 C108.333,76.740 97.175,76.740 97.175,76.740 C97.175,76.740 97.175,81.750 97.175,81.750 C97.175,81.750 113.292,81.750 113.292,81.750 C114.661,81.750 115.772,80.629 115.772,79.245 C115.772,79.245 115.772,63.590 115.772,63.590 Z"/>
</svg>