<?xml version="1.0" encoding="utf-8"?>
<!DOCTYPE svg PUBLIC "-//W3C//DTD SVG 1.1//EN" "http://www.w3.org/Graphics/SVG/1.1/DTD/svg11.dtd">
<svg version="1.1" baseProfile="full"
 xmlns="http://www.w3.org/2000/svg"
 width="40px" height="40px" viewBox="0 0 40 40">
<path fill-rule="evenodd"  fill="rgb( 255, 255, 255 )"
 d="M33.141,22.536 C33.141,22.536 12.520,22.536 12.520,22.536 C12.520,22.536 21.495,31.547 21.495,31.547 C22.280,32.336 22.280,33.614 21.495,34.402 C20.710,35.190 19.437,35.190 18.652,34.402 C18.652,34.402 6.804,22.505 6.804,22.505 C5.923,22.358 5.250,21.598 5.250,20.675 C5.250,20.675 5.250,20.359 5.250,20.359 C5.250,19.668 5.632,19.071 6.192,18.750 C6.277,18.408 6.446,18.082 6.712,17.814 C6.712,17.814 18.652,5.825 18.652,5.825 C19.437,5.036 20.710,5.036 21.495,5.825 C22.280,6.613 22.280,7.891 21.495,8.679 C21.495,8.679 11.716,18.499 11.716,18.499 C11.716,18.499 33.141,18.499 33.141,18.499 C34.168,18.499 35.000,19.332 35.000,20.359 C35.000,20.359 35.000,20.675 35.000,20.675 C35.000,21.702 34.168,22.536 33.141,22.536 Z"/>
</svg>