<?xml version="1.0" encoding="utf-8"?>
<!DOCTYPE svg PUBLIC "-//W3C//DTD SVG 1.1//EN" "http://www.w3.org/Graphics/SVG/1.1/DTD/svg11.dtd">
<svg version="1.1" baseProfile="full"
     width="40px" height="40px" viewBox="0 0 40 40"
 xmlns="http://www.w3.org/2000/svg"
 xmlns:xlink="http://www.w3.org/1999/xlink"
 xmlns:ev="http://www.w3.org/2001/xml-events" >
<path fill-rule="evenodd"  fill="rgb( 255, 255, 255 )"
 d="M37.500,23.254 C37.500,23.254 9.775,23.254 9.775,23.254 C9.775,23.254 21.842,35.362 21.842,35.362 C22.897,36.421 22.897,38.138 21.842,39.197 C20.786,40.256 19.075,40.256 18.019,39.197 C18.019,39.197 2.090,23.213 2.090,23.213 C0.905,23.016 0.000,21.994 0.000,20.754 C0.000,20.754 0.000,20.331 0.000,20.331 C0.000,19.401 0.513,18.599 1.266,18.169 C1.381,17.709 1.608,17.271 1.966,16.911 C1.966,16.911 18.019,0.803 18.019,0.803 C19.075,-0.256 20.786,-0.256 21.842,0.803 C22.897,1.862 22.897,3.579 21.842,4.638 C21.842,4.638 8.694,17.831 8.694,17.831 C8.694,17.831 37.500,17.831 37.500,17.831 C38.881,17.831 40.000,18.950 40.000,20.331 C40.000,20.331 40.000,20.754 40.000,20.754 C40.000,22.135 38.881,23.254 37.500,23.254 Z"/>
</svg>