<?xml version="1.0" encoding="utf-8"?>
<!DOCTYPE svg PUBLIC "-//W3C//DTD SVG 1.1//EN" "http://www.w3.org/Graphics/SVG/1.1/DTD/svg11.dtd">
<svg version="1.1" baseProfile="full"
     width="62px" height="51px" viewBox="0 0 62 51"
 xmlns="http://www.w3.org/2000/svg"
 xmlns:xlink="http://www.w3.org/1999/xlink"
 xmlns:ev="http://www.w3.org/2001/xml-events" >
<path fill-rule="evenodd" fill="rgb( 255,255,255 )"
 d="M62.000,33.012 C62.000,40.442 56.134,46.518 48.726,46.972 C48.726,46.972 48.726,47.000 48.726,47.000 C48.726,47.000 12.627,47.000 12.627,47.000 C12.627,47.000 12.627,46.838 12.627,46.838 C12.559,46.839 12.492,46.840 12.424,46.840 C5.563,46.840 -0.000,41.347 -0.000,34.571 C-0.000,28.353 4.685,23.216 10.759,22.412 C10.143,21.257 9.794,19.941 9.794,18.545 C9.794,13.954 13.562,10.233 18.211,10.233 C20.018,10.233 21.691,10.795 23.062,11.751 C25.225,6.055 30.789,2.000 37.313,2.000 C45.717,2.000 52.530,8.728 52.530,17.027 C52.530,17.949 52.445,18.853 52.284,19.730 C57.927,21.572 62.000,26.822 62.000,33.012 ZM45.324,29.109 C45.324,29.109 41.268,29.109 41.268,29.109 C41.268,29.109 41.268,29.109 41.268,29.109 C41.268,34.329 36.982,38.560 31.695,38.560 C26.407,38.560 22.121,34.329 22.121,29.109 C22.121,23.927 26.347,19.721 31.582,19.661 C31.582,19.661 31.582,24.327 31.582,24.327 C31.582,24.327 40.143,17.600 40.143,17.600 C40.143,17.600 31.582,10.874 31.582,10.874 C31.582,10.874 31.582,15.656 31.582,15.656 C24.107,15.716 18.066,21.716 18.066,29.109 C18.066,36.540 24.168,42.563 31.695,42.563 C39.222,42.563 45.324,36.540 45.324,29.109 C45.324,29.109 45.324,29.109 45.324,29.109 Z"/>
</svg>