<?xml version="1.0" encoding="utf-8"?>
<!DOCTYPE svg PUBLIC "-//W3C//DTD SVG 1.1//EN" "http://www.w3.org/Graphics/SVG/1.1/DTD/svg11.dtd">
<svg version="1.1" baseProfile="full"
 xmlns="http://www.w3.org/2000/svg"
 width="40px" height="40px" viewBox="0 0 40 40">
<path fill-rule="evenodd"  fill="rgb( 255, 255, 255 )"
 d="M34.880,39.992 C34.880,39.992 7.800,39.992 7.800,39.992 C6.639,39.992 5.697,39.074 5.697,37.942 C5.697,37.942 5.697,36.148 5.697,36.148 C5.697,36.148 8.352,36.148 8.352,36.148 C9.644,36.148 10.692,35.127 10.692,33.867 C10.692,32.607 9.644,31.585 8.352,31.585 C8.352,31.585 5.697,31.585 5.697,31.585 C5.697,31.585 5.697,29.229 5.697,29.229 C5.697,29.229 8.352,29.229 8.352,29.229 C9.644,29.229 10.692,28.208 10.692,26.948 C10.692,25.688 9.644,24.666 8.352,24.666 C8.352,24.666 5.697,24.666 5.697,24.666 C5.697,24.666 5.697,22.186 5.697,22.186 C5.697,22.186 8.352,22.186 8.352,22.186 C9.644,22.186 10.692,21.165 10.692,19.905 C10.692,18.645 9.644,17.623 8.352,17.623 C8.352,17.623 5.697,17.623 5.697,17.623 C5.697,17.623 5.697,15.466 5.697,15.466 C5.697,15.466 8.352,15.466 8.352,15.466 C9.644,15.466 10.692,14.444 10.692,13.184 C10.692,11.924 9.644,10.903 8.352,10.903 C8.352,10.903 5.697,10.903 5.697,10.903 C5.697,10.903 5.697,8.423 5.697,8.423 C5.697,8.423 8.352,8.423 8.352,8.423 C9.644,8.423 10.692,7.401 10.692,6.141 C10.692,4.881 9.644,3.860 8.352,3.860 C8.352,3.860 5.697,3.860 5.697,3.860 C5.697,3.860 5.697,2.066 5.697,2.066 C5.697,0.934 6.639,0.016 7.800,0.016 C7.800,0.016 34.880,0.016 34.880,0.016 C36.042,0.016 36.984,0.934 36.984,2.066 C36.984,2.066 36.984,37.942 36.984,37.942 C36.984,39.074 36.042,39.992 34.880,39.992 ZM21.866,7.191 C19.417,7.191 17.432,9.593 17.432,12.556 C17.432,15.519 19.417,17.921 21.866,17.921 C24.315,17.921 26.300,15.519 26.300,12.556 C26.300,9.593 24.315,7.191 21.866,7.191 ZM25.842,17.159 C25.212,19.391 23.670,20.970 21.866,20.970 C20.062,20.970 18.520,19.391 17.891,17.159 C14.726,18.323 12.536,20.832 12.536,23.740 C12.536,23.862 12.540,23.984 12.548,24.104 C12.548,24.104 31.185,24.104 31.185,24.104 C31.192,23.984 31.196,23.862 31.196,23.740 C31.196,20.832 29.006,18.323 25.842,17.159 ZM9.904,6.141 C9.904,6.981 9.205,7.662 8.343,7.662 C8.343,7.662 3.577,7.662 3.577,7.662 C2.715,7.662 2.016,6.981 2.016,6.141 C2.016,5.301 2.715,4.620 3.577,4.620 C3.577,4.620 8.343,4.620 8.343,4.620 C9.205,4.620 9.904,5.301 9.904,6.141 ZM3.577,11.663 C3.577,11.663 8.343,11.663 8.343,11.663 C9.205,11.663 9.904,12.344 9.904,13.184 C9.904,14.024 9.205,14.705 8.343,14.705 C8.343,14.705 3.577,14.705 3.577,14.705 C2.715,14.705 2.016,14.024 2.016,13.184 C2.016,12.344 2.715,11.663 3.577,11.663 ZM3.577,18.384 C3.577,18.384 8.343,18.384 8.343,18.384 C9.205,18.384 9.904,19.065 9.904,19.905 C9.904,20.745 9.205,21.426 8.343,21.426 C8.343,21.426 3.577,21.426 3.577,21.426 C2.715,21.426 2.016,20.745 2.016,19.905 C2.016,19.065 2.715,18.384 3.577,18.384 ZM3.577,25.427 C3.577,25.427 8.343,25.427 8.343,25.427 C9.205,25.427 9.904,26.108 9.904,26.948 C9.904,27.788 9.205,28.469 8.343,28.469 C8.343,28.469 3.577,28.469 3.577,28.469 C2.715,28.469 2.016,27.788 2.016,26.948 C2.016,26.108 2.715,25.427 3.577,25.427 ZM3.577,32.346 C3.577,32.346 8.343,32.346 8.343,32.346 C9.205,32.346 9.904,33.027 9.904,33.867 C9.904,34.707 9.205,35.388 8.343,35.388 C8.343,35.388 3.577,35.388 3.577,35.388 C2.715,35.388 2.016,34.707 2.016,33.867 C2.016,33.027 2.715,32.346 3.577,32.346 Z"/>
</svg>