<?xml version="1.0" encoding="utf-8"?>
<!DOCTYPE svg PUBLIC "-//W3C//DTD SVG 1.1//EN" "http://www.w3.org/Graphics/SVG/1.1/DTD/svg11.dtd">
<svg version="1.1" baseProfile="full"
 xmlns="http://www.w3.org/2000/svg"
 width="40px" height="40px" viewBox="0 0 40 40">
<path fill-rule="evenodd"  fill="rgba( 0, 0, 0, .7 )"
 d="M22.414,28.595 C22.414,29.368 22.414,30.114 22.414,30.516 C23.543,30.516 30.750,30.516 30.750,30.516 C30.750,30.516 30.750,34.481 30.750,34.481 C30.750,34.481 23.543,34.481 22.414,34.481 C22.414,35.506 22.414,40.017 22.414,40.017 C22.414,40.017 18.331,40.017 18.331,40.017 C18.331,40.017 18.331,35.506 18.331,34.481 C17.202,34.481 9.962,34.481 9.962,34.481 C9.962,34.481 9.962,30.516 9.962,30.516 C9.962,30.516 17.202,30.516 18.331,30.516 C18.331,30.103 18.331,29.338 18.331,28.556 C11.364,27.512 6.000,21.553 6.000,14.359 C6.000,6.432 12.505,-0.017 20.500,-0.017 C28.495,-0.017 35.000,6.432 35.000,14.359 C35.000,21.641 29.505,27.661 22.414,28.595 ZM20.500,3.949 C14.709,3.949 10.000,8.619 10.000,14.359 C10.000,20.099 14.709,24.769 20.500,24.769 C26.291,24.769 31.000,20.099 31.000,14.359 C31.000,8.619 26.291,3.949 20.500,3.949 Z"/>
</svg>