<?xml version="1.0" encoding="utf-8"?>
<!DOCTYPE svg PUBLIC "-//W3C//DTD SVG 1.1//EN" "http://www.w3.org/Graphics/SVG/1.1/DTD/svg11.dtd">
<svg version="1.1" baseProfile="full"
 xmlns="http://www.w3.org/2000/svg"
 width="80px" height="66px" viewBox="0 0 80 66"
 xmlns:xlink="http://www.w3.org/1999/xlink"
 xmlns:ev="http://www.w3.org/2001/xml-events" >
<path fill-rule="evenodd"  fill="#999999"
 d="M76.396,66.000 C76.396,66.000 14.054,66.000 14.054,66.000 C12.064,66.000 10.450,64.376 10.450,62.374 C10.450,62.374 10.450,27.198 10.450,27.198 C10.450,27.198 10.450,22.484 10.450,22.484 C10.450,22.484 10.450,16.319 10.450,16.319 C10.450,14.316 12.064,12.692 14.054,12.692 C14.054,12.692 34.234,12.692 34.234,12.692 C36.224,12.692 37.838,14.316 37.838,16.319 C37.838,16.319 37.838,18.857 37.838,18.857 C37.838,18.857 76.396,18.857 76.396,18.857 C78.387,18.857 80.000,20.481 80.000,22.484 C80.000,22.484 80.000,62.374 80.000,62.374 C80.000,64.376 78.387,66.000 76.396,66.000 ZM41.888,12.823 C41.888,10.548 40.057,8.703 37.799,8.703 C37.799,8.703 10.576,8.703 10.576,8.703 C8.317,8.703 6.486,10.548 6.486,12.823 C6.486,12.823 6.486,19.827 6.486,19.827 C6.486,19.827 6.486,25.182 6.486,25.182 C6.486,25.182 6.486,53.308 6.486,53.308 C6.486,53.308 3.604,53.308 3.604,53.308 C1.613,53.308 0.000,51.684 0.000,49.681 C0.000,49.681 0.000,14.505 0.000,14.505 C0.000,14.505 0.000,9.791 0.000,9.791 C0.000,9.791 0.000,3.626 0.000,3.626 C0.000,1.624 1.613,-0.000 3.604,-0.000 C3.604,-0.000 23.784,-0.000 23.784,-0.000 C25.774,-0.000 27.387,1.624 27.387,3.626 C27.387,3.626 27.387,6.165 27.387,6.165 C27.387,6.165 65.946,6.165 65.946,6.165 C67.936,6.165 69.550,7.788 69.550,9.791 C69.550,9.791 69.550,15.707 69.550,15.707 C69.550,15.707 41.888,15.707 41.888,15.707 C41.888,15.707 41.888,12.823 41.888,12.823 Z"/>
</svg>