<?xml version="1.0" encoding="utf-8"?>
<!DOCTYPE svg PUBLIC "-//W3C//DTD SVG 1.1//EN" "http://www.w3.org/Graphics/SVG/1.1/DTD/svg11.dtd">
<svg version="1.1" baseProfile="full"
     width="40px" height="40px" viewBox="0 0 40 40"
 xmlns="http://www.w3.org/2000/svg"
 xmlns:xlink="http://www.w3.org/1999/xlink"
 xmlns:ev="http://www.w3.org/2001/xml-events" >
<path fill-rule="evenodd"  fill="rgb( 255,255,255 )"
 d="M30.139,5.664 C30.080,5.664 30.023,5.658 29.967,5.646 C29.967,5.646 29.967,5.664 29.967,5.664 C29.967,5.664 11.377,5.664 11.377,5.664 C11.377,5.664 11.377,3.894 11.377,3.894 C11.377,3.894 29.967,3.894 29.967,3.894 C29.967,3.894 29.967,3.912 29.967,3.912 C30.023,3.900 30.080,3.894 30.139,3.894 C30.615,3.894 31.000,4.290 31.000,4.779 C31.000,5.267 30.615,5.664 30.139,5.664 ZM14.475,2.124 C14.475,2.124 11.033,2.124 11.033,2.124 C11.033,2.124 11.033,1.416 11.033,1.416 C11.033,1.416 13.098,1.416 13.098,1.416 C13.098,1.416 13.098,1.062 13.098,1.062 C13.098,1.062 11.033,1.062 11.033,1.062 C11.033,1.062 11.033,-0.000 11.033,-0.000 C11.033,-0.000 16.197,-0.000 16.197,-0.000 C16.197,-0.000 16.197,3.540 16.197,3.540 C16.197,3.540 14.475,3.540 14.475,3.540 C14.475,3.540 14.475,2.124 14.475,2.124 ZM14.131,3.540 C14.131,3.540 11.033,3.540 11.033,3.540 C11.033,3.540 11.033,6.018 11.033,6.018 C11.033,6.018 14.131,6.018 14.131,6.018 C14.131,6.018 14.131,7.080 14.131,7.080 C14.131,7.080 10.000,7.080 10.000,7.080 C10.000,7.080 10.000,2.478 10.000,2.478 C10.000,2.478 14.131,2.478 14.131,2.478 C14.131,2.478 14.131,3.540 14.131,3.540 ZM14.475,6.018 C14.475,6.018 16.197,6.018 16.197,6.018 C16.197,6.018 16.197,40.000 16.197,40.000 C16.197,40.000 11.033,40.000 11.033,40.000 C11.033,40.000 11.033,38.584 11.033,38.584 C11.033,38.584 13.098,38.584 13.098,38.584 C13.098,38.584 13.098,38.230 13.098,38.230 C13.098,38.230 11.033,38.230 11.033,38.230 C11.033,38.230 11.033,37.168 11.033,37.168 C11.033,37.168 13.098,37.168 13.098,37.168 C13.098,37.168 13.098,36.814 13.098,36.814 C13.098,36.814 11.033,36.814 11.033,36.814 C11.033,36.814 11.033,35.752 11.033,35.752 C11.033,35.752 13.098,35.752 13.098,35.752 C13.098,35.752 13.098,35.398 13.098,35.398 C13.098,35.398 11.033,35.398 11.033,35.398 C11.033,35.398 11.033,34.336 11.033,34.336 C11.033,34.336 13.098,34.336 13.098,34.336 C13.098,34.336 13.098,33.982 13.098,33.982 C13.098,33.982 11.033,33.982 11.033,33.982 C11.033,33.982 11.033,32.920 11.033,32.920 C11.033,32.920 14.820,32.920 14.820,32.920 C14.820,32.920 14.820,32.212 14.820,32.212 C14.820,32.212 11.033,32.212 11.033,32.212 C11.033,32.212 11.033,31.150 11.033,31.150 C11.033,31.150 13.098,31.150 13.098,31.150 C13.098,31.150 13.098,30.796 13.098,30.796 C13.098,30.796 11.033,30.796 11.033,30.796 C11.033,30.796 11.033,29.734 11.033,29.734 C11.033,29.734 13.098,29.734 13.098,29.734 C13.098,29.734 13.098,29.381 13.098,29.381 C13.098,29.381 11.033,29.381 11.033,29.381 C11.033,29.381 11.033,28.319 11.033,28.319 C11.033,28.319 13.098,28.319 13.098,28.319 C13.098,28.319 13.098,27.965 13.098,27.965 C13.098,27.965 11.033,27.965 11.033,27.965 C11.033,27.965 11.033,26.903 11.033,26.903 C11.033,26.903 13.098,26.903 13.098,26.903 C13.098,26.903 13.098,26.549 13.098,26.549 C13.098,26.549 11.033,26.549 11.033,26.549 C11.033,26.549 11.033,25.487 11.033,25.487 C11.033,25.487 14.820,25.487 14.820,25.487 C14.820,25.487 14.820,24.779 14.820,24.779 C14.820,24.779 11.033,24.779 11.033,24.779 C11.033,24.779 11.033,23.717 11.033,23.717 C11.033,23.717 13.098,23.717 13.098,23.717 C13.098,23.717 13.098,23.363 13.098,23.363 C13.098,23.363 11.033,23.363 11.033,23.363 C11.033,23.363 11.033,22.301 11.033,22.301 C11.033,22.301 13.098,22.301 13.098,22.301 C13.098,22.301 13.098,21.947 13.098,21.947 C13.098,21.947 11.033,21.947 11.033,21.947 C11.033,21.947 11.033,20.885 11.033,20.885 C11.033,20.885 13.098,20.885 13.098,20.885 C13.098,20.885 13.098,20.531 13.098,20.531 C13.098,20.531 11.033,20.531 11.033,20.531 C11.033,20.531 11.033,19.469 11.033,19.469 C11.033,19.469 13.098,19.469 13.098,19.469 C13.098,19.469 13.098,19.115 13.098,19.115 C13.098,19.115 11.033,19.115 11.033,19.115 C11.033,19.115 11.033,18.053 11.033,18.053 C11.033,18.053 14.820,18.053 14.820,18.053 C14.820,18.053 14.820,17.345 14.820,17.345 C14.820,17.345 11.033,17.345 11.033,17.345 C11.033,17.345 11.033,16.283 11.033,16.283 C11.033,16.283 13.098,16.283 13.098,16.283 C13.098,16.283 13.098,15.929 13.098,15.929 C13.098,15.929 11.033,15.929 11.033,15.929 C11.033,15.929 11.033,14.867 11.033,14.867 C11.033,14.867 13.098,14.867 13.098,14.867 C13.098,14.867 13.098,14.513 13.098,14.513 C13.098,14.513 11.033,14.513 11.033,14.513 C11.033,14.513 11.033,13.451 11.033,13.451 C11.033,13.451 13.098,13.451 13.098,13.451 C13.098,13.451 13.098,13.097 13.098,13.097 C13.098,13.097 11.033,13.097 11.033,13.097 C11.033,13.097 11.033,12.035 11.033,12.035 C11.033,12.035 13.098,12.035 13.098,12.035 C13.098,12.035 13.098,11.681 13.098,11.681 C13.098,11.681 11.033,11.681 11.033,11.681 C11.033,11.681 11.033,10.619 11.033,10.619 C11.033,10.619 14.820,10.619 14.820,10.619 C14.820,10.619 14.820,9.911 14.820,9.911 C14.820,9.911 11.033,9.911 11.033,9.911 C11.033,9.911 11.033,8.850 11.033,8.850 C11.033,8.850 13.098,8.850 13.098,8.850 C13.098,8.850 13.098,8.496 13.098,8.496 C13.098,8.496 11.033,8.496 11.033,8.496 C11.033,8.496 11.033,7.434 11.033,7.434 C11.033,7.434 14.475,7.434 14.475,7.434 C14.475,7.434 14.475,6.018 14.475,6.018 Z"/>
</svg>