<?xml version="1.0" encoding="utf-8"?>
<!DOCTYPE svg PUBLIC "-//W3C//DTD SVG 1.1//EN" "http://www.w3.org/Graphics/SVG/1.1/DTD/svg11.dtd">
<svg version="1.1" baseProfile="full"
 xmlns="http://www.w3.org/2000/svg"
 width="40px" height="40px" viewBox="0 0 40 40">
<path fill-rule="evenodd"  fill="rgb( 37, 54, 61 )"
 d="M20.000,39.250 C13.328,39.250 7.451,35.855 3.997,30.699 C3.997,30.699 8.830,27.901 8.830,27.901 C8.830,27.901 11.075,31.797 11.075,31.797 C11.075,31.797 12.274,31.103 12.274,31.103 C12.274,31.103 12.269,31.094 12.269,31.094 C12.269,31.094 35.880,17.404 35.880,17.404 C35.880,17.404 36.923,19.219 36.923,19.219 C36.923,19.219 38.652,15.223 38.652,15.223 C39.042,16.751 39.250,18.351 39.250,20.000 C39.250,30.631 30.631,39.250 20.000,39.250 ZM23.899,22.349 C24.046,22.468 24.140,22.536 24.201,22.575 C24.201,22.575 22.665,23.465 22.665,23.465 C22.942,23.007 23.057,22.197 22.762,21.559 C22.421,20.819 21.175,20.431 21.175,20.431 C21.175,20.431 21.540,20.178 22.851,18.610 C24.163,17.042 24.951,15.010 24.951,15.010 C24.951,15.010 25.355,15.415 26.732,16.621 C28.109,17.827 30.235,18.856 30.235,18.856 C30.235,18.856 30.861,18.624 31.532,18.324 C31.532,18.324 27.076,20.908 27.076,20.908 C26.936,20.845 26.692,20.737 26.509,20.669 C26.239,20.570 26.047,20.681 25.531,20.894 C25.015,21.107 24.644,20.981 24.644,20.981 C24.644,20.981 24.400,20.483 24.220,19.949 C24.039,19.414 23.572,17.938 23.572,17.938 C23.572,17.938 22.124,19.712 22.124,19.712 C22.124,19.712 22.336,20.228 22.585,20.809 C22.835,21.389 23.500,22.026 23.899,22.349 ZM35.190,16.203 C35.190,16.203 33.059,17.439 33.059,17.439 C33.168,17.316 33.188,17.209 33.073,17.129 C32.436,16.688 30.906,17.360 30.412,17.390 C29.918,17.420 25.473,12.663 25.473,12.663 C25.473,12.663 25.480,12.232 25.497,11.967 C25.515,11.701 25.829,11.434 26.043,11.140 C26.257,10.846 26.360,10.360 26.478,10.121 C26.596,9.883 25.960,9.739 25.909,9.428 C25.857,9.117 26.424,7.810 25.679,6.664 C24.933,5.519 22.312,5.331 21.485,5.596 C20.658,5.861 19.620,7.016 19.474,8.463 C19.343,9.768 20.759,11.355 21.039,11.655 C20.996,11.643 20.928,11.696 20.841,12.018 C20.693,12.573 18.448,15.405 17.693,16.310 C16.937,17.216 15.504,18.130 14.886,19.127 C14.267,20.123 13.803,20.648 13.890,21.833 C13.976,23.018 14.809,24.241 15.783,24.231 C16.757,24.222 17.276,23.496 18.039,23.268 C18.802,23.039 20.617,22.714 20.617,22.714 C20.617,22.714 17.474,23.765 17.474,23.765 C17.474,23.765 17.571,24.007 16.908,24.262 C16.246,24.517 16.044,24.166 15.793,24.396 C15.542,24.626 14.726,27.570 14.726,27.570 C14.726,27.570 15.868,27.335 16.534,26.865 C17.200,26.394 17.244,26.028 17.244,26.028 C17.244,26.028 17.313,26.073 18.159,25.840 C18.436,25.763 18.963,25.542 19.557,25.267 C19.557,25.267 11.578,29.894 11.578,29.894 C11.578,29.894 10.029,27.207 10.029,27.207 C10.029,27.207 10.034,27.204 10.034,27.204 C10.034,27.204 9.345,26.005 9.345,26.005 C9.345,26.005 9.339,26.009 9.339,26.009 C9.339,26.009 9.334,26.000 9.334,26.000 C9.334,26.000 8.135,26.695 8.135,26.695 C8.135,26.695 8.140,26.703 8.140,26.703 C8.140,26.703 3.272,29.521 3.272,29.521 C1.670,26.713 0.750,23.465 0.750,20.000 C0.750,9.369 9.369,0.750 20.000,0.750 C28.883,0.750 36.356,6.768 38.576,14.948 C38.576,14.948 34.181,14.446 34.181,14.446 C34.181,14.446 35.190,16.203 35.190,16.203 ZM11.573,26.481 C11.396,26.839 11.506,29.246 11.447,29.366 C11.388,29.485 11.749,29.447 11.749,29.447 C11.749,29.447 12.462,29.205 12.744,28.956 C13.027,28.708 12.641,27.796 13.298,27.458 C13.955,27.120 14.750,26.874 14.750,26.874 C14.750,26.874 15.591,24.342 15.591,24.342 C15.591,24.342 14.786,24.127 14.786,24.127 C14.786,24.127 13.290,25.616 13.053,25.796 C12.815,25.975 11.750,26.123 11.573,26.481 ZM21.087,11.706 C21.087,11.706 21.070,11.688 21.039,11.655 C21.070,11.663 21.087,11.706 21.087,11.706 Z"/>
</svg>