<?xml version="1.0" encoding="utf-8"?>
<!DOCTYPE svg PUBLIC "-//W3C//DTD SVG 1.1//EN" "http://www.w3.org/Graphics/SVG/1.1/DTD/svg11.dtd">
<svg version="1.1" baseProfile="full"
     width="35px" height="27px" viewBox="0 0 35 27"
 xmlns="http://www.w3.org/2000/svg"
 xmlns:xlink="http://www.w3.org/1999/xlink"
 xmlns:ev="http://www.w3.org/2001/xml-events" >
<path fill-rule="evenodd"  fill="rgb( 255, 255, 255 )"
 d="M9.710,25.921 C9.710,25.921 9.710,21.063 9.710,21.063 C9.710,21.063 33.986,21.063 33.986,21.063 C33.986,21.063 33.986,25.921 33.986,25.921 C33.986,25.921 9.710,25.921 9.710,25.921 ZM9.710,10.581 C9.710,10.581 33.986,10.581 33.986,10.581 C33.986,10.581 33.986,15.406 33.986,15.406 C33.986,15.406 9.710,15.406 9.710,15.406 C9.710,15.406 9.710,10.581 9.710,10.581 ZM9.710,-0.000 C9.710,-0.000 33.986,-0.000 33.986,-0.000 C33.986,-0.000 33.986,4.858 33.986,4.858 C33.986,4.858 9.710,4.858 9.710,4.858 C9.710,4.858 9.710,-0.000 9.710,-0.000 ZM-0.000,21.096 C-0.000,21.096 4.855,21.096 4.855,21.096 C4.855,21.096 4.855,25.987 4.855,25.987 C4.855,25.987 -0.000,25.987 -0.000,25.987 C-0.000,25.987 -0.000,21.096 -0.000,21.096 ZM-0.000,10.581 C-0.000,10.581 4.855,10.581 4.855,10.581 C4.855,10.581 4.855,15.439 4.855,15.439 C4.855,15.439 -0.000,15.439 -0.000,15.439 C-0.000,15.439 -0.000,10.581 -0.000,10.581 ZM-0.000,-0.000 C-0.000,-0.000 4.855,-0.000 4.855,-0.000 C4.855,-0.000 4.855,4.858 4.855,4.858 C4.855,4.858 -0.000,4.858 -0.000,4.858 C-0.000,4.858 -0.000,-0.000 -0.000,-0.000 Z"/>
</svg>