<?xml version="1.0" encoding="utf-8"?>
<!DOCTYPE svg PUBLIC "-//W3C//DTD SVG 1.1//EN" "http://www.w3.org/Graphics/SVG/1.1/DTD/svg11.dtd">
<svg version="1.1" baseProfile="full"
 xmlns="http://www.w3.org/2000/svg"
 width="40px" height="40px" viewBox="0 0 40 40">
<path fill-rule="evenodd"  fill="rgba( 0, 0, 0, .7 )"
 d="M34.286,14.976 C34.286,14.976 34.286,10.424 34.286,8.495 C33.014,9.748 29.202,13.506 27.227,15.451 C29.168,17.856 30.336,20.906 30.336,24.227 C30.336,31.956 24.036,38.244 16.294,38.244 C8.552,38.244 2.252,31.956 2.252,24.227 C2.252,16.498 8.552,10.210 16.294,10.210 C19.324,10.210 22.125,11.183 24.422,12.818 C26.374,10.939 30.296,7.164 31.636,5.873 C29.592,5.873 24.618,5.873 24.618,5.873 C24.618,5.873 24.618,2.006 24.618,2.006 C24.618,2.006 37.352,2.006 37.352,2.006 C37.352,2.006 37.998,2.006 37.998,2.006 C37.998,2.006 37.998,14.976 37.998,14.976 C37.998,14.976 34.286,14.976 34.286,14.976 ZM6.126,24.227 C6.126,29.824 10.688,34.377 16.294,34.377 C21.900,34.377 26.463,29.824 26.463,24.227 C26.463,18.630 21.900,14.077 16.294,14.077 C10.688,14.077 6.126,18.630 6.126,24.227 Z"/>
</svg>