<?xml version="1.0" encoding="utf-8"?>
<!DOCTYPE svg PUBLIC "-//W3C//DTD SVG 1.1//EN" "http://www.w3.org/Graphics/SVG/1.1/DTD/svg11.dtd">
<svg version="1.1" baseProfile="full"
 xmlns="http://www.w3.org/2000/svg"
 width="40px" height="40px" viewBox="0 0 40 40"
 xmlns:xlink="http://www.w3.org/1999/xlink"
 xmlns:ev="http://www.w3.org/2001/xml-events" >
<path fill-rule="evenodd"  fill="rgb( 78, 125, 188 )"
 d="M29.000,40.000 C29.000,40.000 10.000,40.000 10.000,40.000 C6.686,40.000 4.000,37.314 4.000,34.000 C4.000,34.000 4.000,6.000 4.000,6.000 C4.000,2.686 6.686,0.000 10.000,0.000 C10.000,0.000 29.000,0.000 29.000,0.000 C32.314,0.000 35.000,2.686 35.000,6.000 C35.000,6.000 35.000,34.000 35.000,34.000 C35.000,37.314 32.314,40.000 29.000,40.000 ZM8.316,26.800 C8.316,26.800 20.873,26.800 20.873,26.800 C20.873,26.800 20.873,25.200 20.873,25.200 C20.873,25.200 8.316,25.200 8.316,25.200 C8.316,25.200 8.316,26.800 8.316,26.800 ZM30.684,6.000 C30.684,6.000 8.316,6.000 8.316,6.000 C8.316,6.000 8.316,7.600 8.316,7.600 C8.316,7.600 30.684,7.600 30.684,7.600 C30.684,7.600 30.684,6.000 30.684,6.000 ZM30.684,10.800 C30.684,10.800 8.316,10.800 8.316,10.800 C8.316,10.800 8.316,12.400 8.316,12.400 C8.316,12.400 30.684,12.400 30.684,12.400 C30.684,12.400 30.684,10.800 30.684,10.800 ZM30.684,15.600 C30.684,15.600 8.316,15.600 8.316,15.600 C8.316,15.600 8.316,17.200 8.316,17.200 C8.316,17.200 30.684,17.200 30.684,17.200 C30.684,17.200 30.684,15.600 30.684,15.600 ZM30.684,20.400 C30.684,20.400 8.316,20.400 8.316,20.400 C8.316,20.400 8.316,22.000 8.316,22.000 C8.316,22.000 30.684,22.000 30.684,22.000 C30.684,22.000 30.684,20.400 30.684,20.400 Z"/>
</svg>