<?xml version="1.0" encoding="utf-8"?>
<!DOCTYPE svg PUBLIC "-//W3C//DTD SVG 1.1//EN" "http://www.w3.org/Graphics/SVG/1.1/DTD/svg11.dtd">
<svg version="1.1" baseProfile="full"
     width="79px" height="100px" viewBox="0 0 79 100"
 xmlns="http://www.w3.org/2000/svg"
 xmlns:xlink="http://www.w3.org/1999/xlink"
 xmlns:ev="http://www.w3.org/2001/xml-events" >
<path fill-rule="evenodd"  fill="rgb( 78, 125, 188 )"
 d="M73.000,100.000 C73.000,100.000 6.000,100.000 6.000,100.000 C2.686,100.000 -0.000,97.314 -0.000,94.000 C-0.000,94.000 -0.000,6.000 -0.000,6.000 C-0.000,2.686 2.686,-0.000 6.000,-0.000 C6.000,-0.000 73.000,-0.000 73.000,-0.000 C76.314,-0.000 79.000,2.686 79.000,6.000 C79.000,6.000 79.000,94.000 79.000,94.000 C79.000,97.314 76.314,100.000 73.000,100.000 ZM11.000,67.000 C11.000,67.000 43.000,67.000 43.000,67.000 C43.000,67.000 43.000,63.000 43.000,63.000 C43.000,63.000 11.000,63.000 11.000,63.000 C11.000,63.000 11.000,67.000 11.000,67.000 ZM68.000,15.000 C68.000,15.000 11.000,15.000 11.000,15.000 C11.000,15.000 11.000,19.000 11.000,19.000 C11.000,19.000 68.000,19.000 68.000,19.000 C68.000,19.000 68.000,15.000 68.000,15.000 ZM68.000,27.000 C68.000,27.000 11.000,27.000 11.000,27.000 C11.000,27.000 11.000,31.000 11.000,31.000 C11.000,31.000 68.000,31.000 68.000,31.000 C68.000,31.000 68.000,27.000 68.000,27.000 ZM68.000,39.000 C68.000,39.000 11.000,39.000 11.000,39.000 C11.000,39.000 11.000,43.000 11.000,43.000 C11.000,43.000 68.000,43.000 68.000,43.000 C68.000,43.000 68.000,39.000 68.000,39.000 ZM68.000,51.000 C68.000,51.000 11.000,51.000 11.000,51.000 C11.000,51.000 11.000,55.000 11.000,55.000 C11.000,55.000 68.000,55.000 68.000,55.000 C68.000,55.000 68.000,51.000 68.000,51.000 Z"/>
</svg>