<?xml version="1.0" encoding="utf-8"?>
<!DOCTYPE svg PUBLIC "-//W3C//DTD SVG 1.1//EN" "http://www.w3.org/Graphics/SVG/1.1/DTD/svg11.dtd">
<svg version="1.1" baseProfile="full"
 xmlns="http://www.w3.org/2000/svg"
 width="40px" height="40px" viewBox="0 0 40 40">
<path fill-rule="evenodd"  fill="rgb( 0, 0, 0 )"
 d="M14.639,33.388 C14.639,33.388 10.384,29.130 10.384,29.130 C10.384,29.130 1.112,19.851 1.112,19.851 C0.630,19.369 0.630,18.587 1.112,18.105 C1.112,18.105 5.366,13.847 5.366,13.847 C5.848,13.365 6.630,13.365 7.112,13.847 C7.112,13.847 15.512,22.253 15.512,22.253 C15.512,22.253 32.638,5.114 32.638,5.114 C33.120,4.632 33.902,4.632 34.384,5.114 C34.384,5.114 38.638,9.371 38.638,9.371 C39.120,9.854 39.120,10.636 38.638,11.118 C38.638,11.118 20.639,29.130 20.639,29.130 C20.639,29.130 16.384,33.388 16.384,33.388 C15.902,33.870 15.121,33.870 14.639,33.388 Z"/>
</svg>