<?xml version="1.0" encoding="utf-8"?>
<!DOCTYPE svg PUBLIC "-//W3C//DTD SVG 1.1//EN" "http://www.w3.org/Graphics/SVG/1.1/DTD/svg11.dtd">
<svg version="1.1" baseProfile="full"
     width="89px" height="68px" viewBox="0 0 89 68"
 xmlns="http://www.w3.org/2000/svg"
 xmlns:xlink="http://www.w3.org/1999/xlink"
 xmlns:ev="http://www.w3.org/2001/xml-events" >
<path fill-rule="evenodd"  fill="rgb(2, 174, 142)"
 d="M83.675,63.000 C83.675,63.000 5.125,63.000 5.125,63.000 C2.184,63.000 -0.200,60.617 -0.200,57.678 C-0.200,57.678 -0.200,12.175 -0.200,12.175 C-0.200,9.235 2.184,6.853 5.125,6.853 C5.125,6.853 8.321,6.853 8.321,6.853 C8.321,6.853 8.321,2.861 8.321,2.861 C8.321,1.391 9.513,0.200 10.983,0.200 C10.983,0.200 19.504,0.200 19.504,0.200 C20.974,0.200 22.167,1.391 22.167,2.861 C22.167,2.861 22.167,6.853 22.167,6.853 C22.167,6.853 83.675,6.853 83.675,6.853 C86.616,6.853 89.000,9.235 89.000,12.175 C89.000,12.175 89.000,57.678 89.000,57.678 C89.000,60.617 86.616,63.000 83.675,63.000 ZM45.000,14.600 C33.071,14.600 23.400,24.271 23.400,36.200 C23.400,48.129 33.071,57.800 45.000,57.800 C56.929,57.800 66.600,48.129 66.600,36.200 C66.600,24.271 56.929,14.600 45.000,14.600 ZM45.002,50.201 C37.270,50.201 31.002,43.933 31.002,36.202 C31.002,28.470 37.270,22.202 45.002,22.202 C52.733,22.202 59.001,28.470 59.001,36.202 C59.001,43.933 52.733,50.201 45.002,50.201 Z"/>
</svg>