<?xml version="1.0" encoding="utf-8"?>
<!DOCTYPE svg PUBLIC "-//W3C//DTD SVG 1.1//EN" "http://www.w3.org/Graphics/SVG/1.1/DTD/svg11.dtd">
<svg version="1.1" baseProfile="full"
 xmlns="http://www.w3.org/2000/svg"
 width="40px" height="40px" viewBox="0 0 40 40"
 xmlns:xlink="http://www.w3.org/1999/xlink"
 xmlns:ev="http://www.w3.org/2001/xml-events" >
<path fill-rule="evenodd"  fill="rgb( 28, 187, 180 )"
 d="M37.612,33.000 C37.612,33.000 2.383,33.000 2.383,33.000 C1.064,33.000 -0.006,31.938 -0.006,30.628 C-0.006,30.628 -0.006,10.343 -0.006,10.343 C-0.006,9.033 1.064,7.971 2.383,7.971 C2.383,7.971 3.816,7.971 3.816,7.971 C3.816,7.971 3.816,6.192 3.816,6.192 C3.816,5.537 4.350,5.006 5.010,5.006 C5.010,5.006 8.831,5.006 8.831,5.006 C9.491,5.006 10.026,5.537 10.026,6.192 C10.026,6.192 10.026,7.971 10.026,7.971 C10.026,7.971 37.612,7.971 37.612,7.971 C38.931,7.971 40.000,9.033 40.000,10.343 C40.000,10.343 40.000,30.628 40.000,30.628 C40.000,31.938 38.931,33.000 37.612,33.000 ZM20.266,11.425 C14.916,11.425 10.579,15.736 10.579,21.053 C10.579,26.371 14.916,30.682 20.266,30.682 C25.617,30.682 29.954,26.371 29.954,21.053 C29.954,15.736 25.617,11.425 20.266,11.425 ZM20.267,27.295 C16.799,27.295 13.988,24.501 13.988,21.054 C13.988,17.607 16.799,14.813 20.267,14.813 C23.735,14.813 26.546,17.607 26.546,21.054 C26.546,24.501 23.735,27.295 20.267,27.295 Z"/>
</svg>