<?xml version="1.0" encoding="utf-8"?>
<!DOCTYPE svg PUBLIC "-//W3C//DTD SVG 1.1//EN" "http://www.w3.org/Graphics/SVG/1.1/DTD/svg11.dtd">
<svg version="1.1" baseProfile="full"
     width="58px" height="58px" viewBox="0 0 58 58"
 xmlns="http://www.w3.org/2000/svg"
 xmlns:xlink="http://www.w3.org/1999/xlink"
 xmlns:ev="http://www.w3.org/2001/xml-events" >
<path fill-rule="evenodd"  fill="rgb( 44, 44, 44 )"
 d="M57.928,23.325 C57.928,23.325 35.347,23.325 35.347,23.325 C35.347,23.325 35.347,0.626 35.347,0.626 C35.347,0.626 23.499,0.626 23.499,0.626 C23.499,0.626 23.499,23.325 23.499,23.325 C23.499,23.325 0.801,23.325 0.801,23.325 C0.801,23.325 0.801,35.231 0.801,35.231 C0.801,35.231 23.499,35.231 23.499,35.231 C23.499,35.231 23.499,57.813 23.499,57.813 C23.499,57.813 35.347,57.813 35.347,57.813 C35.347,57.813 35.347,35.231 35.347,35.231 C35.347,35.231 57.928,35.231 57.928,35.231 C57.928,35.231 57.928,23.325 57.928,23.325 Z"/>
</svg>