<?xml version="1.0" encoding="utf-8"?>
<!DOCTYPE svg PUBLIC "-//W3C//DTD SVG 1.1//EN" "http://www.w3.org/Graphics/SVG/1.1/DTD/svg11.dtd">
<svg version="1.1" baseProfile="full"
     width="70px" height="70px" viewBox="0 0 70 70"
 xmlns="http://www.w3.org/2000/svg"
 xmlns:xlink="http://www.w3.org/1999/xlink"
 xmlns:ev="http://www.w3.org/2001/xml-events" >
<path fill-rule="evenodd"  fill="rgb( 37, 54, 61 )"
 d="M30.636,63.837 C30.636,63.837 30.636,59.512 30.636,59.512 C30.636,59.512 5.182,59.512 5.182,59.512 C3.977,59.512 3.000,58.543 3.000,57.349 C3.000,57.349 3.000,55.186 3.000,55.186 C3.000,53.992 3.977,53.023 5.182,53.023 C5.182,53.023 30.636,53.023 30.636,53.023 C30.636,53.023 30.636,48.698 30.636,48.698 C30.636,47.503 31.613,46.535 32.818,46.535 C32.818,46.535 37.909,46.535 37.909,46.535 C39.114,46.535 40.091,47.503 40.091,48.698 C40.091,48.698 40.091,53.023 40.091,53.023 C40.091,53.023 64.818,53.023 64.818,53.023 C66.023,53.023 67.000,53.992 67.000,55.186 C67.000,55.186 67.000,57.349 67.000,57.349 C67.000,58.543 66.023,59.512 64.818,59.512 C64.818,59.512 40.091,59.512 40.091,59.512 C40.091,59.512 40.091,63.837 40.091,63.837 C40.091,65.032 39.114,66.000 37.909,66.000 C37.909,66.000 32.818,66.000 32.818,66.000 C31.613,66.000 30.636,65.032 30.636,63.837 ZM14.636,42.209 C14.636,42.209 14.636,37.884 14.636,37.884 C14.636,37.884 5.182,37.884 5.182,37.884 C3.977,37.884 3.000,36.915 3.000,35.721 C3.000,35.721 3.000,33.558 3.000,33.558 C3.000,32.364 3.977,31.395 5.182,31.395 C5.182,31.395 14.636,31.395 14.636,31.395 C14.636,31.395 14.636,27.070 14.636,27.070 C14.636,25.875 15.613,24.907 16.818,24.907 C16.818,24.907 21.909,24.907 21.909,24.907 C23.114,24.907 24.091,25.875 24.091,27.070 C24.091,27.070 24.091,31.395 24.091,31.395 C24.091,31.395 64.818,31.395 64.818,31.395 C66.023,31.395 67.000,32.364 67.000,33.558 C67.000,33.558 67.000,35.721 67.000,35.721 C67.000,36.915 66.023,37.884 64.818,37.884 C64.818,37.884 24.091,37.884 24.091,37.884 C24.091,37.884 24.091,42.209 24.091,42.209 C24.091,43.404 23.114,44.372 21.909,44.372 C21.909,44.372 16.818,44.372 16.818,44.372 C15.613,44.372 14.636,43.404 14.636,42.209 ZM46.636,21.302 C46.636,21.302 46.636,16.977 46.636,16.977 C46.636,16.977 5.182,16.977 5.182,16.977 C3.977,16.977 3.000,16.008 3.000,14.814 C3.000,14.814 3.000,12.651 3.000,12.651 C3.000,11.457 3.977,10.488 5.182,10.488 C5.182,10.488 46.636,10.488 46.636,10.488 C46.636,10.488 46.636,6.163 46.636,6.163 C46.636,4.968 47.613,4.000 48.818,4.000 C48.818,4.000 53.909,4.000 53.909,4.000 C55.114,4.000 56.091,4.968 56.091,6.163 C56.091,6.163 56.091,10.488 56.091,10.488 C56.091,10.488 64.818,10.488 64.818,10.488 C66.023,10.488 67.000,11.457 67.000,12.651 C67.000,12.651 67.000,14.814 67.000,14.814 C67.000,16.008 66.023,16.977 64.818,16.977 C64.818,16.977 56.091,16.977 56.091,16.977 C56.091,16.977 56.091,21.302 56.091,21.302 C56.091,22.497 55.114,23.465 53.909,23.465 C53.909,23.465 48.818,23.465 48.818,23.465 C47.613,23.465 46.636,22.497 46.636,21.302 Z"/>
</svg>