<?xml version="1.0" encoding="utf-8"?>
<!DOCTYPE svg PUBLIC "-//W3C//DTD SVG 1.1//EN" "http://www.w3.org/Graphics/SVG/1.1/DTD/svg11.dtd">
<svg version="1.1" baseProfile="full"
     width="70px" height="70px" viewBox="0 0 70 70"
 xmlns="http://www.w3.org/2000/svg"
 xmlns:xlink="http://www.w3.org/1999/xlink"
 xmlns:ev="http://www.w3.org/2001/xml-events" >
<path fill-rule="evenodd"  fill="rgb( 37, 54, 61 )"
 d="M58.002,23.490 C53.831,25.876 48.649,24.938 45.568,21.507 C45.568,21.507 26.476,32.429 26.476,32.429 C26.792,33.394 26.965,34.422 26.965,35.491 C26.965,36.602 26.778,37.668 26.438,38.665 C26.438,38.665 45.485,49.577 45.485,49.577 C48.559,46.079 53.792,45.109 57.995,47.517 C62.769,50.252 64.405,56.310 61.648,61.047 C58.892,65.785 52.787,67.408 48.012,64.673 C43.843,62.285 42.067,57.363 43.519,53.000 C43.519,53.000 24.442,42.071 24.442,42.071 C22.613,44.110 19.950,45.396 16.983,45.396 C11.469,45.396 7.000,40.962 7.000,35.491 C7.000,30.021 11.469,25.586 16.983,25.586 C19.992,25.586 22.689,26.910 24.519,29.000 C24.519,29.000 43.565,18.104 43.565,18.104 C42.052,13.714 43.825,8.733 48.029,6.328 C52.805,3.596 58.910,5.222 61.663,9.961 C64.417,14.700 62.778,20.757 58.002,23.490 Z"/>
</svg>