<?xml version="1.0" encoding="utf-8"?>
<!DOCTYPE svg PUBLIC "-//W3C//DTD SVG 1.1//EN" "http://www.w3.org/Graphics/SVG/1.1/DTD/svg11.dtd">
<svg version="1.1" baseProfile="full"
     width="168px" height="168px" viewBox="0 0 168 168"
 xmlns="http://www.w3.org/2000/svg"
 xmlns:xlink="http://www.w3.org/1999/xlink"
 xmlns:ev="http://www.w3.org/2001/xml-events" >
<path fill-rule="evenodd"  fill="#1e94f6"
 d="M84.590,147.000 C84.590,147.000 84.590,147.000 84.589,147.000 C84.589,147.000 84.589,128.402 84.589,128.402 C84.590,128.402 84.590,128.402 84.590,128.402 C108.801,128.402 128.429,108.746 128.429,84.500 C128.429,60.254 108.801,40.598 84.590,40.598 C60.552,40.598 41.042,59.976 40.764,83.983 C40.764,83.983 62.406,83.983 62.406,83.983 C62.406,83.983 31.205,123.240 31.205,123.240 C31.205,123.240 0.005,83.983 0.005,83.983 C0.005,83.983 22.186,83.983 22.186,83.983 C22.463,49.704 50.294,22.000 84.590,22.000 C119.058,22.000 147.000,49.982 147.000,84.500 C147.000,119.018 119.058,147.000 84.590,147.000 Z"/>
</svg>