<?xml version="1.0" encoding="utf-8"?>
<!DOCTYPE svg PUBLIC "-//W3C//DTD SVG 1.1//EN" "http://www.w3.org/Graphics/SVG/1.1/DTD/svg11.dtd">
<svg version="1.1" baseProfile="full"
 xmlns="http://www.w3.org/2000/svg"
 width="40px" height="40px" viewBox="0 0 40 40"
 xmlns:xlink="http://www.w3.org/1999/xlink"
 xmlns:ev="http://www.w3.org/2001/xml-events" >
<path fill-rule="evenodd"  fill="rgb( 255, 255, 255 )"
 d="M20.000,0.001 C20.000,0.001 26.591,11.942 26.591,11.942 C26.591,11.942 39.997,14.515 39.997,14.515 C39.997,14.515 30.665,24.468 30.665,24.468 C30.665,24.468 32.359,37.999 32.359,37.999 C32.359,37.999 20.000,32.208 20.000,32.208 C20.000,32.208 7.641,37.999 7.641,37.999 C7.641,37.999 9.335,24.468 9.335,24.468 C9.335,24.468 0.003,14.515 0.003,14.515 C0.003,14.515 13.408,11.942 13.408,11.942 C13.408,11.942 20.000,0.001 20.000,0.001 "/>
</svg>