<?xml version="1.0" encoding="utf-8"?>
<!DOCTYPE svg PUBLIC "-//W3C//DTD SVG 1.1//EN" "http://www.w3.org/Graphics/SVG/1.1/DTD/svg11.dtd">
<svg version="1.1" baseProfile="full"
 xmlns="http://www.w3.org/2000/svg"
 width="100px" height="93px" viewBox="0 0 109 93"
 xmlns:xlink="http://www.w3.org/1999/xlink"
 xmlns:ev="http://www.w3.org/2001/xml-events" >
<path fill-rule="evenodd"  fill="rgb( 254, 196, 44 )"
 d="M50.000,0.002 C50.000,0.002 66.149,29.227 66.149,29.227 C66.149,29.227 98.994,35.523 98.994,35.523 C98.994,35.523 76.130,59.882 76.130,59.882 C76.130,59.882 80.280,92.998 80.280,92.998 C80.280,92.998 50.000,78.825 50.000,78.825 C50.000,78.825 19.720,92.998 19.720,92.998 C19.720,92.998 23.870,59.882 23.870,59.882 C23.870,59.882 1.006,35.523 1.006,35.523 C1.006,35.523 33.851,29.227 33.851,29.227 C33.851,29.227 50.000,0.002 50.000,0.002 "/>
</svg>