<?xml version="1.0" encoding="utf-8"?>
<!DOCTYPE svg PUBLIC "-//W3C//DTD SVG 1.1//EN" "http://www.w3.org/Graphics/SVG/1.1/DTD/svg11.dtd">
<svg version="1.1" baseProfile="full"
 xmlns="http://www.w3.org/2000/svg"
 width="40px" height="40px" viewBox="0 0 40 40"
 xmlns:xlink="http://www.w3.org/1999/xlink"
 xmlns:ev="http://www.w3.org/2001/xml-events" >
<path fill-rule="evenodd"  fill="rgba( 27, 27, 27, .3 )"
 d="M34.042,9.453 C34.042,9.453 16.804,26.470 16.804,26.470 C15.911,27.353 14.461,27.353 13.567,26.470 C13.567,26.470 13.163,26.071 13.163,26.071 C12.269,25.188 12.269,23.757 13.163,22.875 C13.163,22.875 30.400,5.858 30.400,5.858 C30.400,5.858 34.042,9.453 34.042,9.453 Z"/>
<path fill-rule="evenodd"  fill="rgb( 255, 255, 255 )"
 d="M28.955,6.527 C28.955,6.527 28.955,6.527 28.955,6.527 C28.955,6.527 29.485,6.003 29.485,6.003 C29.485,6.003 28.603,5.132 28.603,5.132 C28.408,4.940 28.409,4.628 28.604,4.435 C28.604,4.435 28.781,4.260 28.781,4.260 C28.976,4.068 29.293,4.067 29.488,4.259 C29.488,4.259 31.075,5.827 31.075,5.827 C31.075,5.827 34.612,2.335 34.612,2.335 C34.612,2.335 34.259,1.986 34.259,1.986 C34.064,1.794 34.065,1.482 34.260,1.289 C34.260,1.289 34.437,1.114 34.437,1.114 C34.632,0.922 34.949,0.921 35.144,1.113 C35.144,1.113 38.848,4.770 38.848,4.770 C39.042,4.962 39.042,5.275 38.847,5.468 C38.847,5.468 38.670,5.642 38.670,5.642 C38.474,5.835 38.158,5.835 37.963,5.643 C37.963,5.643 37.610,5.295 37.610,5.295 C37.610,5.295 34.073,8.787 34.073,8.787 C34.073,8.787 35.661,10.354 35.661,10.354 C35.856,10.546 35.855,10.858 35.660,11.051 C35.660,11.051 35.483,11.226 35.483,11.226 C35.288,11.419 34.971,11.419 34.777,11.227 C34.777,11.227 33.895,10.356 33.895,10.356 C33.895,10.356 17.169,26.868 17.169,26.868 C17.169,26.868 16.211,27.607 15.619,27.582 C15.283,27.568 14.467,27.282 13.824,27.036 C13.824,27.036 12.500,28.344 12.500,28.344 C12.304,28.536 11.988,28.537 11.793,28.345 C11.793,28.345 2.774,37.249 2.774,37.249 C2.774,37.249 2.243,37.773 2.243,37.773 C2.243,37.773 1.005,38.995 1.005,38.995 C1.005,38.995 1.873,37.407 1.873,37.407 C1.873,37.407 1.714,37.250 1.714,37.250 C1.714,37.250 11.264,27.822 11.264,27.822 C11.069,27.630 11.070,27.318 11.265,27.125 C11.265,27.125 12.589,25.818 12.589,25.818 C12.341,25.182 12.051,24.377 12.036,24.045 C12.011,23.461 12.760,22.515 12.760,22.515 C12.760,22.515 28.955,6.527 28.955,6.527 ZM28.953,7.573 C28.953,7.573 30.541,9.140 30.541,9.140 C30.541,9.140 30.187,9.489 30.187,9.489 C30.187,9.489 28.600,7.922 28.600,7.922 C28.600,7.922 26.831,9.668 26.831,9.668 C26.831,9.668 27.713,10.539 27.713,10.539 C27.713,10.539 27.359,10.888 27.359,10.888 C27.359,10.888 26.477,10.017 26.477,10.017 C26.477,10.017 24.709,11.763 24.709,11.763 C24.709,11.763 25.591,12.634 25.591,12.634 C25.591,12.634 25.237,12.983 25.237,12.983 C25.237,12.983 24.355,12.112 24.355,12.112 C24.355,12.112 22.410,14.033 22.410,14.033 C22.410,14.033 23.997,15.600 23.997,15.600 C23.997,15.600 23.643,15.949 23.643,15.949 C23.643,15.949 22.056,14.382 22.056,14.382 C22.056,14.382 20.287,16.128 20.287,16.128 C20.287,16.128 21.169,16.999 21.169,16.999 C21.169,16.999 20.816,17.348 20.816,17.348 C20.816,17.348 19.934,16.477 19.934,16.477 C19.934,16.477 18.165,18.223 18.165,18.223 C18.165,18.223 19.047,19.094 19.047,19.094 C19.047,19.094 18.693,19.443 18.693,19.443 C18.693,19.443 17.811,18.572 17.811,18.572 C17.811,18.572 16.043,20.318 16.043,20.318 C16.043,20.318 17.630,21.885 17.630,21.885 C17.630,21.885 17.277,22.235 17.277,22.235 C17.277,22.235 15.689,20.668 15.689,20.668 C15.689,20.668 13.744,22.588 13.744,22.588 C13.744,22.588 14.626,23.459 14.626,23.459 C14.626,23.459 14.272,23.808 14.272,23.808 C14.272,23.808 13.419,22.966 13.419,22.966 C13.244,23.217 12.978,23.651 12.986,23.957 C12.997,24.409 13.651,25.988 13.651,25.988 C13.651,25.988 15.251,26.634 15.709,26.645 C16.166,26.656 16.918,26.071 16.918,26.071 C16.918,26.071 33.366,9.834 33.366,9.834 C33.366,9.834 31.690,8.180 31.690,8.180 C31.690,8.180 30.014,6.525 30.014,6.525 C30.014,6.525 28.953,7.573 28.953,7.573 Z"/>
</svg>