<?xml version="1.0" encoding="utf-8"?>
<!DOCTYPE svg PUBLIC "-//W3C//DTD SVG 1.1//EN" "http://www.w3.org/Graphics/SVG/1.1/DTD/svg11.dtd">
<svg version="1.1" baseProfile="full"
     width="81px" height="109px" viewBox="0 0 81 109"
 xmlns="http://www.w3.org/2000/svg"
 xmlns:xlink="http://www.w3.org/1999/xlink"
 xmlns:ev="http://www.w3.org/2001/xml-events" >
<path fill-rule="evenodd"  fill="rgb( 170, 102, 204 )"
 d="M9.649,54.051 C9.012,47.717 1.579,36.104 0.305,25.337 C-0.969,14.568 1.792,7.179 8.375,2.956 C14.958,-1.267 17.506,0.211 19.842,0.422 C22.178,0.633 34.494,5.278 39.803,5.489 C45.112,5.701 55.305,0.844 63.162,0.422 C71.019,-0.000 74.417,3.589 75.903,5.912 C77.390,8.234 81.000,13.291 81.000,21.536 C81.000,31.459 71.869,47.084 71.232,53.629 C70.595,60.174 72.081,97.335 64.436,104.302 C56.792,111.270 60.826,107.891 58.490,108.103 C56.154,108.314 54.456,107.680 52.969,102.613 C51.483,97.546 55.305,74.743 51.695,66.297 C48.085,57.852 40.865,58.274 39.803,58.274 C38.741,58.274 31.556,59.732 28.761,67.142 C24.938,77.276 29.185,97.546 27.911,101.346 C26.637,105.147 24.089,108.314 22.390,108.103 C20.691,107.891 14.186,108.995 11.348,87.411 C7.738,59.963 10.286,60.385 9.649,54.051 Z"/>
</svg>