<?xml version="1.0" encoding="utf-8"?>
<!DOCTYPE svg PUBLIC "-//W3C//DTD SVG 1.1//EN" "http://www.w3.org/Graphics/SVG/1.1/DTD/svg11.dtd">
<svg version="1.1" baseProfile="full"
 xmlns="http://www.w3.org/2000/svg"
 width="40px" height="40px" viewBox="0 0 40 40"
 xmlns:xlink="http://www.w3.org/1999/xlink"
 xmlns:ev="http://www.w3.org/2001/xml-events" >
<path fill-rule="evenodd"  fill="#ffffff"
 d="M8.574,19.835 C8.338,17.511 5.585,13.249 5.113,9.298 C4.641,5.346 5.664,2.634 8.102,1.085 C10.540,-0.465 11.484,0.077 12.349,0.155 C13.214,0.232 17.776,1.937 19.742,2.014 C21.708,2.092 25.483,0.310 28.393,0.155 C31.303,-0.000 32.562,1.317 33.112,2.169 C33.663,3.022 35.000,4.877 35.000,7.903 C35.000,11.545 31.618,17.278 31.382,19.680 C31.146,22.082 31.697,35.719 28.865,38.276 C26.034,40.833 27.528,39.593 26.663,39.671 C25.798,39.748 25.169,39.516 24.618,37.656 C24.068,35.797 25.483,27.429 24.146,24.329 C22.809,21.230 20.135,21.385 19.742,21.385 C19.349,21.385 16.687,21.920 15.652,24.639 C14.236,28.358 15.809,35.797 15.338,37.191 C14.866,38.586 13.922,39.748 13.293,39.671 C12.663,39.593 10.254,39.998 9.203,32.077 C7.866,22.005 8.810,22.160 8.574,19.835 Z"/>
</svg>