<?xml version="1.0" encoding="utf-8"?>
<!DOCTYPE svg PUBLIC "-//W3C//DTD SVG 1.1//EN" "http://www.w3.org/Graphics/SVG/1.1/DTD/svg11.dtd">
<svg version="1.1" baseProfile="full"
     width="54px" height="69px" viewBox="0 0 54 69"
 xmlns="http://www.w3.org/2000/svg"
 xmlns:xlink="http://www.w3.org/1999/xlink"
 xmlns:ev="http://www.w3.org/2001/xml-events" >
<path fill-rule="evenodd"  fill="rgb( 255, 255, 255 )"
 d="M-0.000,10.937 C-0.000,8.987 6.833,7.317 16.552,6.610 C16.552,6.610 16.552,2.344 16.552,2.344 C16.552,1.049 17.663,0.000 19.034,0.000 C19.034,0.000 34.759,0.000 34.759,0.000 C36.130,0.000 37.241,1.049 37.241,2.344 C37.241,2.344 37.241,6.610 37.241,6.610 C46.960,7.317 53.793,8.987 53.793,10.937 C53.793,10.937 53.793,12.499 53.793,12.499 C53.793,12.499 -0.000,12.499 -0.000,12.499 C-0.000,12.499 -0.000,10.937 -0.000,10.937 ZM19.034,6.454 C21.522,6.322 24.160,6.250 26.897,6.250 C29.633,6.250 32.271,6.322 34.759,6.454 C34.759,6.454 34.759,4.687 34.759,4.687 C34.759,3.393 33.647,2.344 32.276,2.344 C32.276,2.344 21.517,2.344 21.517,2.344 C20.146,2.344 19.034,3.393 19.034,4.687 C19.034,4.687 19.034,6.454 19.034,6.454 ZM26.897,16.405 C40.270,16.405 51.359,15.767 53.438,14.932 C53.854,15.480 54.079,16.241 54.009,17.080 C54.009,17.080 48.152,63.025 48.152,63.025 C48.068,64.031 47.138,64.841 46.074,64.841 C46.074,64.841 35.607,69.000 26.483,69.000 C16.688,69.000 8.187,64.841 8.187,64.841 C7.123,64.841 6.193,64.031 6.109,63.025 C6.109,63.025 0.252,17.080 0.252,17.080 C0.187,16.301 0.382,15.594 0.742,15.057 C3.568,15.830 14.201,16.405 26.897,16.405 Z"/>
</svg>