<?xml version="1.0" encoding="utf-8"?>
<!DOCTYPE svg PUBLIC "-//W3C//DTD SVG 1.1//EN" "http://www.w3.org/Graphics/SVG/1.1/DTD/svg11.dtd">
<svg version="1.1" baseProfile="full"
     width="68px" height="60px" viewBox="0 0 68 60"
 xmlns="http://www.w3.org/2000/svg"
 xmlns:xlink="http://www.w3.org/1999/xlink"
 xmlns:ev="http://www.w3.org/2001/xml-events" >
<path fill-rule="evenodd"  fill="rgb( 0, 191, 243 )"
 d="M41.614,7.895 C56.186,7.895 67.997,19.560 67.997,33.947 C67.997,48.337 56.186,60.001 41.614,60.001 C41.614,60.001 13.456,60.001 13.456,60.001 C13.456,60.001 13.456,48.945 13.456,48.945 C13.456,48.945 41.614,48.945 41.614,48.945 C50.002,48.945 56.803,42.231 56.803,33.947 C56.803,25.664 50.002,18.951 41.614,18.951 C41.614,18.951 23.549,18.951 23.549,18.951 C23.549,18.951 23.549,26.847 23.549,26.847 C23.549,26.847 0.003,13.424 0.003,13.424 C0.003,13.424 23.549,-0.001 23.549,-0.001 C23.549,-0.001 23.549,7.895 23.549,7.895 C23.549,7.895 41.614,7.895 41.614,7.895 Z"/>
</svg>