<?xml version="1.0" encoding="utf-8"?>
<!DOCTYPE svg PUBLIC "-//W3C//DTD SVG 1.1//EN" "http://www.w3.org/Graphics/SVG/1.1/DTD/svg11.dtd">
<svg version="1.1" baseProfile="full"
     width="89px" height="82px" viewBox="0 0 106 82"
 xmlns="http://www.w3.org/2000/svg"
 xmlns:xlink="http://www.w3.org/1999/xlink"
 xmlns:ev="http://www.w3.org/2001/xml-events" >
<path fill-rule="evenodd"  fill="rgb( 255, 255, 255 )"
 d="M106.915,98.001 C106.915,98.001 0.085,98.001 0.085,98.001 C0.041,97.302 0.017,96.600 0.017,95.893 C0.017,79.039 12.573,64.501 30.711,57.757 C34.321,70.692 43.160,79.837 53.500,79.837 C63.840,79.837 72.679,70.692 76.289,57.757 C94.427,64.501 106.982,79.039 106.982,95.893 C106.982,96.600 106.958,97.302 106.915,98.001 ZM53.500,62.172 C39.462,62.172 28.083,48.254 28.083,31.086 C28.083,13.917 39.462,-0.001 53.500,-0.001 C67.538,-0.001 78.917,13.917 78.917,31.086 C78.917,48.254 67.538,62.172 53.500,62.172 Z"/>
</svg>