<?xml version="1.0" encoding="utf-8"?>
<!DOCTYPE svg PUBLIC "-//W3C//DTD SVG 1.1//EN" "http://www.w3.org/Graphics/SVG/1.1/DTD/svg11.dtd">
<svg version="1.1" baseProfile="full"
 xmlns="http://www.w3.org/2000/svg"
 width="40px" height="40px" viewBox="0 0 40 40"
 xmlns:xlink="http://www.w3.org/1999/xlink"
 xmlns:ev="http://www.w3.org/2001/xml-events" >
<path fill-rule="evenodd"  fill="rgb( 102, 153, 0 )"
 d="M33.957,40.000 C33.957,40.000 5.043,40.000 5.043,40.000 C3.363,40.000 2.000,38.653 2.000,36.992 C2.000,36.992 2.000,8.421 2.000,8.421 C2.000,6.760 3.363,5.414 5.043,5.414 C5.043,5.414 9.182,5.414 9.182,5.414 C11.360,2.153 15.098,-0.000 19.348,-0.000 C23.597,-0.000 27.336,2.153 29.514,5.414 C29.514,5.414 33.957,5.414 33.957,5.414 C35.637,5.414 37.000,6.760 37.000,8.421 C37.000,8.421 37.000,36.992 37.000,36.992 C37.000,38.653 35.637,40.000 33.957,40.000 ZM19.500,3.308 C14.541,3.308 10.522,7.280 10.522,12.180 C10.522,17.080 14.541,21.053 19.500,21.053 C24.459,21.053 28.478,17.080 28.478,12.180 C28.478,7.280 24.459,3.308 19.500,3.308 ZM20.990,13.178 C20.920,13.283 20.838,13.375 20.749,13.456 C20.749,13.456 20.657,13.681 20.657,13.681 C20.657,13.681 20.549,13.611 20.549,13.611 C20.057,13.927 19.403,13.946 18.882,13.606 C18.361,13.267 18.121,12.666 18.220,12.095 C18.220,12.095 18.112,12.025 18.112,12.025 C18.112,12.025 18.285,11.852 18.285,11.852 C18.325,11.739 18.378,11.628 18.448,11.523 C18.635,11.243 18.902,11.046 19.199,10.939 C19.199,10.939 23.571,6.572 23.571,6.572 C23.571,6.572 21.237,12.266 21.237,12.266 C21.255,12.577 21.177,12.897 20.990,13.178 Z"/>
</svg>