<?xml version="1.0" encoding="utf-8"?>
<!DOCTYPE svg PUBLIC "-//W3C//DTD SVG 1.1//EN" "http://www.w3.org/Graphics/SVG/1.1/DTD/svg11.dtd">
<svg version="1.1" baseProfile="full"
     width="90px" height="104px" viewBox="0 0 90 104"
 xmlns="http://www.w3.org/2000/svg"
 xmlns:xlink="http://www.w3.org/1999/xlink"
 xmlns:ev="http://www.w3.org/2001/xml-events" >
<path fill-rule="evenodd"  fill="rgb( 102, 153, 0 )"
 d="M82.174,104.000 C82.174,104.000 7.826,104.000 7.826,104.000 C3.504,104.000 -0.000,100.499 -0.000,96.180 C-0.000,96.180 -0.000,21.895 -0.000,21.895 C-0.000,17.576 3.504,14.075 7.826,14.075 C7.826,14.075 18.468,14.075 18.468,14.075 C24.068,5.597 33.682,-0.000 44.609,-0.000 C55.536,-0.000 65.150,5.597 70.750,14.075 C70.750,14.075 82.174,14.075 82.174,14.075 C86.496,14.075 90.000,17.576 90.000,21.895 C90.000,21.895 90.000,96.180 90.000,96.180 C90.000,100.499 86.496,104.000 82.174,104.000 ZM45.000,8.601 C32.249,8.601 21.913,18.929 21.913,31.669 C21.913,44.409 32.249,54.737 45.000,54.737 C57.751,54.737 68.087,44.409 68.087,31.669 C68.087,18.929 57.751,8.601 45.000,8.601 ZM48.831,34.262 C48.652,34.535 48.441,34.774 48.211,34.985 C48.211,34.985 47.974,35.571 47.974,35.571 C47.974,35.571 47.697,35.388 47.697,35.388 C46.432,36.209 44.751,36.258 43.411,35.377 C42.071,34.495 41.453,32.932 41.708,31.447 C41.708,31.447 41.431,31.265 41.431,31.265 C41.431,31.265 41.876,30.816 41.876,30.816 C41.979,30.521 42.116,30.234 42.296,29.961 C42.777,29.231 43.462,28.719 44.226,28.442 C44.226,28.442 55.467,17.088 55.467,17.088 C55.467,17.088 49.466,31.890 49.466,31.890 C49.513,32.701 49.313,33.532 48.831,34.262 Z"/>
</svg>