<?xml version="1.0" encoding="utf-8"?>
<!DOCTYPE svg PUBLIC "-//W3C//DTD SVG 1.1//EN" "http://www.w3.org/Graphics/SVG/1.1/DTD/svg11.dtd">
<svg version="1.1" baseProfile="full"
 xmlns="http://www.w3.org/2000/svg"
 xmlns:xlink="http://www.w3.org/1999/xlink"
 width="40px" height="40px" viewBox="0 0 40 40"
 xmlns:ev="http://www.w3.org/2001/xml-events" >
<path fill-rule="evenodd"  fill="rgb( 255, 255, 255 )"
 d="M32.304,36.000 C32.304,36.000 6.696,36.000 6.696,36.000 C5.207,36.000 4.000,34.822 4.000,33.368 C4.000,33.368 4.000,8.368 4.000,8.368 C4.000,6.915 5.207,5.737 6.696,5.737 C6.696,5.737 10.361,5.737 10.361,5.737 C12.290,2.884 15.601,1.000 19.365,1.000 C23.129,1.000 26.440,2.884 28.369,5.737 C28.369,5.737 32.304,5.737 32.304,5.737 C33.793,5.737 35.000,6.915 35.000,8.368 C35.000,8.368 35.000,33.368 35.000,33.368 C35.000,34.822 33.793,36.000 32.304,36.000 ZM19.500,3.895 C15.108,3.895 11.548,7.370 11.548,11.658 C11.548,15.945 15.108,19.421 19.500,19.421 C23.892,19.421 27.452,15.945 27.452,11.658 C27.452,7.370 23.892,3.895 19.500,3.895 ZM20.820,12.531 C20.758,12.622 20.685,12.703 20.606,12.774 C20.606,12.774 20.524,12.971 20.524,12.971 C20.524,12.971 20.429,12.909 20.429,12.909 C19.993,13.186 19.414,13.202 18.953,12.906 C18.491,12.609 18.278,12.083 18.366,11.583 C18.366,11.583 18.271,11.522 18.271,11.522 C18.271,11.522 18.424,11.371 18.424,11.371 C18.460,11.272 18.507,11.175 18.568,11.083 C18.734,10.837 18.970,10.665 19.233,10.572 C19.233,10.572 23.105,6.751 23.105,6.751 C23.105,6.751 21.038,11.732 21.038,11.732 C21.054,12.005 20.985,12.285 20.820,12.531 Z"/>
</svg>