<?xml version="1.0" encoding="utf-8"?>
<!DOCTYPE svg PUBLIC "-//W3C//DTD SVG 1.1//EN" "http://www.w3.org/Graphics/SVG/1.1/DTD/svg11.dtd">
<svg version="1.1" baseProfile="full"
 xmlns="http://www.w3.org/2000/svg"
 width="360px" height="214px" viewBox="0 0 360 214">
<defs>
<filter filterUnits="userSpaceOnUse" id="Filter_0" x="95px" y="14px" width="169px" height="184px"  >
  <feOffset in="SourceAlpha" dx="0px" dy="0px" />
  <feGaussianBlur result="blurOut" stdDeviation="3.464" />
  <feFlood flood-color="rgb( 0, 0, 0 )" result="floodOut" />
  <feComposite operator="atop" in="floodOut" in2="blurOut" />
  <feComponentTransfer><feFuncA type="linear" slope="0.53"/></feComponentTransfer>
  <feMerge>
    <feMergeNode/>
    <feMergeNode in="SourceGraphic"/>
  </feMerge>
</filter>

</defs><rect x="0px" y="0px" width="360px" height="287px"  fill="rgb( 67, 18, 76 )"/>
<path fill-rule="evenodd"  fill="rgb( 0, 196, 240 )"
 d="M0.000,287.000 C0.000,287.000 0.000,229.000 0.000,229.000 C0.000,229.000 57.392,195.804 57.392,195.804 C57.392,195.804 72.412,221.662 72.412,221.662 C72.412,221.662 337.576,68.775 337.576,68.775 C337.576,68.775 346.360,83.946 346.360,83.946 C346.360,83.946 360.000,54.000 360.000,54.000 C360.000,54.000 360.000,287.000 360.000,287.000 C360.000,287.000 0.000,287.000 0.000,287.000 Z"/>
<path fill-rule="evenodd"  fill="rgb( 255, 227, 43 )"
 d="M358.100,46.892 C358.100,46.892 345.842,75.204 345.842,75.204 C345.842,75.204 338.852,63.093 338.852,63.093 C338.852,63.093 82.296,211.118 82.296,211.118 C82.296,211.118 82.328,211.173 82.328,211.173 C82.328,211.173 74.318,215.791 74.318,215.791 C74.318,215.791 59.268,189.797 59.268,189.797 C59.268,189.797 -131.989,300.048 -131.989,300.048 C-131.989,300.048 -132.004,289.398 -132.004,289.398 C-132.004,289.398 54.640,181.804 54.640,181.804 C54.640,181.804 54.607,181.747 54.607,181.747 C54.607,181.747 62.616,177.129 62.616,177.129 C62.616,177.129 62.651,177.189 62.651,177.189 C62.651,177.189 62.694,177.164 62.694,177.164 C62.694,177.164 67.311,185.163 67.311,185.163 C67.311,185.163 67.279,185.182 67.279,185.182 C67.279,185.182 77.660,203.111 77.660,203.111 C77.660,203.111 334.228,55.080 334.228,55.080 C334.228,55.080 327.461,43.356 327.461,43.356 C327.461,43.356 358.100,46.892 358.100,46.892 Z"/>
<g filter="url(#Filter_0)">
<path fill-rule="evenodd"  fill="rgb( 255, 255, 255 )"
 d="M232.381,114.628 C232.381,114.628 218.144,107.773 208.925,99.733 C199.706,91.693 197.000,88.991 197.000,88.991 C197.000,88.991 191.722,102.537 182.941,112.988 C174.160,123.439 171.716,125.130 171.716,125.130 C171.716,125.130 180.057,127.712 182.342,132.645 C184.627,137.577 183.243,144.054 180.742,146.630 C178.240,149.206 157.177,159.628 151.516,161.183 C145.856,162.738 145.396,162.435 145.396,162.435 C145.396,162.435 145.099,164.878 140.639,168.013 C136.179,171.149 128.528,172.714 128.528,172.714 C128.528,172.714 133.997,153.094 135.676,151.559 C137.354,150.025 138.711,152.368 143.146,150.667 C147.580,148.966 146.931,147.351 146.931,147.351 C146.931,147.351 167.976,140.347 167.976,140.347 C167.976,140.347 155.825,142.515 150.716,144.036 C145.607,145.558 142.134,150.397 135.610,150.461 C129.087,150.525 123.512,142.374 122.931,134.473 C122.349,126.572 125.460,123.077 129.600,116.434 C133.740,109.790 143.334,103.699 148.396,97.661 C153.457,91.624 168.485,72.748 169.481,69.050 C170.060,66.906 170.520,66.551 170.805,66.629 C171.010,66.847 171.127,66.967 171.127,66.967 C171.127,66.967 171.012,66.685 170.805,66.629 C168.929,64.630 159.447,54.053 160.325,45.354 C161.299,35.706 168.253,28.011 173.790,26.243 C179.327,24.475 196.882,25.729 201.873,33.363 C206.863,40.997 203.068,49.714 203.413,51.788 C203.758,53.861 208.019,54.816 207.228,56.407 C206.438,57.998 205.746,61.236 204.314,63.197 C202.882,65.157 200.775,66.938 200.659,68.709 C200.544,70.479 200.493,73.348 200.493,73.348 C200.493,73.348 230.262,105.057 233.569,104.857 C236.876,104.657 247.120,100.180 251.388,103.118 C255.657,106.057 232.381,114.628 232.381,114.628 ZM128.694,168.074 C128.694,168.074 123.371,169.719 118.969,171.969 C114.567,174.219 117.155,180.298 115.262,181.956 C113.369,183.614 108.597,185.225 108.597,185.225 C108.597,185.225 106.179,185.481 106.574,184.686 C106.969,183.890 106.234,167.842 107.420,165.455 C108.605,163.069 115.738,162.087 117.326,160.888 C118.914,159.690 128.931,149.762 128.931,149.762 C128.931,149.762 134.327,151.200 134.327,151.200 C134.327,151.200 128.694,168.074 128.694,168.074 ZM178.069,120.337 C178.069,120.337 187.763,108.508 187.763,108.508 C187.763,108.508 190.894,118.349 192.102,121.914 C193.310,125.478 194.946,128.796 194.946,128.796 C194.946,128.796 197.430,129.638 200.886,128.217 C204.342,126.795 205.625,126.056 207.435,126.718 C209.244,127.381 211.975,128.648 211.975,128.648 C211.975,128.648 192.722,139.733 192.722,139.733 C192.722,139.733 192.631,140.069 189.958,137.916 C187.285,135.763 182.828,131.513 181.159,127.646 C179.491,123.779 178.069,120.337 178.069,120.337 Z"/>
</g>
</svg>