<?xml version="1.0" encoding="utf-8"?>
<!DOCTYPE svg PUBLIC "-//W3C//DTD SVG 1.1//EN" "http://www.w3.org/Graphics/SVG/1.1/DTD/svg11.dtd">
<svg version="1.1" baseProfile="full"
 xmlns="http://www.w3.org/2000/svg"
 width="808px" height="558px" viewBox="0 0 808 558">
<defs>
<filter filterUnits="userSpaceOnUse" id="Filter_0" x="-13px" y="105px" width="888px" height="713px"  >
  <feOffset in="SourceAlpha" dx="3px" dy="5.196px" />
  <feGaussianBlur result="blurOut" stdDeviation="4.359" />
  <feFlood flood-color="rgb( 0, 0, 0 )" result="floodOut" />
  <feComposite operator="atop" in="floodOut" in2="blurOut" />
  <feComponentTransfer><feFuncA type="linear" slope="0.63"/></feComponentTransfer>
  <feMerge>
    <feMergeNode/>
    <feMergeNode in="SourceGraphic"/>
  </feMerge>
</filter>
<linearGradient id="PSgrad_0" x1="0%" x2="0%" y1="100%" y2="0%">
  <stop offset="0%" stop-color="rgb(0,0,0)" stop-opacity="0.45" />
  <stop offset="100%" stop-color="rgb(255,255,255)" stop-opacity="0.45" />
</linearGradient>
<filter filterUnits="userSpaceOnUse" id="Filter_1" x="1px" y="202px" width="809px" height="394px"  >
  <feOffset in="SourceAlpha" dx="3px" dy="5.196px" />
  <feGaussianBlur result="blurOut" stdDeviation="2.449" />
  <feFlood flood-color="rgb( 0, 0, 0 )" result="floodOut" />
  <feComposite operator="atop" in="floodOut" in2="blurOut" />
  <feComponentTransfer><feFuncA type="linear" slope="0.3"/></feComponentTransfer>
  <feMerge>
    <feMergeNode/>
    <feMergeNode in="SourceGraphic"/>
  </feMerge>
</filter>
<filter filterUnits="userSpaceOnUse" id="Filter_2" x="210px" y="30px" width="469px" height="512px"  >
  <feOffset in="SourceAlpha" dx="0px" dy="0px" />
  <feGaussianBlur result="blurOut" stdDeviation="4.359" />
  <feFlood flood-color="rgb( 0, 0, 0 )" result="floodOut" />
  <feComposite operator="atop" in="floodOut" in2="blurOut" />
  <feComponentTransfer><feFuncA type="linear" slope="0.53"/></feComponentTransfer>
  <feMerge>
    <feMergeNode/>
    <feMergeNode in="SourceGraphic"/>
  </feMerge>
</filter>

</defs><g filter="url(#Filter_0)">
<path fill-rule="evenodd"  fill="rgb( 0, 196, 240 )"
 d="M-0.322,798.474 C-0.322,798.474 1.970,603.328 1.970,603.328 C1.970,603.328 153.063,514.979 153.063,514.979 C153.063,514.979 197.668,591.870 197.668,591.870 C197.668,591.870 735.600,281.364 735.600,281.364 C735.600,281.364 761.686,326.475 761.686,326.475 C761.686,326.475 849.193,123.863 849.193,123.863 C849.193,123.863 802.011,798.684 802.011,798.684 C802.011,798.684 -0.322,798.474 -0.322,798.474 Z"/>
</g>
<path fill="url(#PSgrad_0)"
 d="M-0.322,798.474 C-0.322,798.474 1.970,603.328 1.970,603.328 C1.970,603.328 153.063,514.979 153.063,514.979 C153.063,514.979 197.668,591.870 197.668,591.870 C197.668,591.870 735.600,281.364 735.600,281.364 C735.600,281.364 761.686,326.475 761.686,326.475 C761.686,326.475 849.193,123.863 849.193,123.863 C849.193,123.863 802.011,798.684 802.011,798.684 C802.011,798.684 -0.322,798.474 -0.322,798.474 Z"/>
<g filter="url(#Filter_1)">
<path fill-rule="evenodd"  fill="rgb( 255, 227, 43 )"
 d="M797.078,217.707 C797.078,217.707 760.607,301.935 760.607,301.935 C760.607,301.935 739.850,265.921 739.850,265.921 C739.850,265.921 227.504,561.952 227.504,561.952 C227.504,561.952 227.598,562.116 227.598,562.116 C227.598,562.116 203.786,575.863 203.786,575.863 C203.786,575.863 159.093,498.569 159.093,498.569 C159.093,498.569 1.877,589.268 1.877,589.268 C1.877,589.268 1.847,557.590 1.847,557.590 C1.847,557.590 145.350,474.802 145.350,474.802 C145.350,474.802 145.252,474.632 145.252,474.632 C145.252,474.632 169.064,460.885 169.064,460.885 C169.064,460.885 169.166,461.062 169.166,461.062 C169.166,461.062 169.293,460.989 169.293,460.989 C169.293,460.989 183.006,484.774 183.006,484.774 C183.006,484.774 182.909,484.829 182.909,484.829 C182.909,484.829 213.737,538.144 213.737,538.144 C213.737,538.144 726.116,242.094 726.116,242.094 C726.116,242.094 706.023,207.232 706.023,207.232 C706.023,207.232 797.078,217.707 797.078,217.707 Z"/>
</g>
<g filter="url(#Filter_2)">
<path fill-rule="evenodd"  fill="rgb( 255, 255, 255 )"
 d="M601.953,312.932 C601.953,312.932 559.649,292.546 532.256,268.636 C504.863,244.726 496.824,236.689 496.824,236.689 C496.824,236.689 481.143,276.974 455.051,308.055 C428.960,339.135 421.698,344.164 421.698,344.164 C421.698,344.164 446.481,351.842 453.271,366.510 C460.062,381.178 455.949,400.439 448.515,408.100 C441.082,415.761 378.497,446.756 361.678,451.379 C344.860,456.003 343.491,455.102 343.491,455.102 C343.491,455.102 342.609,462.367 329.358,471.692 C316.106,481.017 293.373,485.670 293.373,485.670 C293.373,485.670 309.623,427.322 314.611,422.759 C319.599,418.196 323.629,425.164 336.806,420.105 C349.982,415.046 348.053,410.246 348.053,410.246 C348.053,410.246 410.586,389.416 410.586,389.416 C410.586,389.416 374.481,395.863 359.300,400.387 C344.120,404.911 333.800,419.303 314.416,419.493 C295.033,419.683 278.469,395.445 276.741,371.948 C275.014,348.451 284.257,338.058 296.558,318.301 C308.860,298.545 337.367,280.430 352.405,262.474 C367.444,244.519 412.096,188.386 415.058,177.389 C416.776,171.011 418.142,169.956 418.990,170.187 C419.599,170.836 419.949,171.193 419.949,171.193 C419.949,171.193 419.605,170.355 418.990,170.187 C413.416,164.243 385.243,132.789 387.852,106.920 C390.746,78.227 411.408,55.342 427.860,50.085 C444.312,44.828 496.473,48.555 511.302,71.259 C526.131,93.963 514.854,119.886 515.879,126.052 C516.903,132.218 529.564,135.058 527.216,139.789 C524.868,144.520 522.811,154.151 518.556,159.981 C514.301,165.811 508.042,171.107 507.698,176.372 C507.354,181.638 507.204,190.170 507.204,190.170 C507.204,190.170 595.656,284.467 605.483,283.873 C615.309,283.278 645.745,269.963 658.428,278.702 C671.111,287.440 601.953,312.932 601.953,312.932 ZM293.866,471.873 C293.866,471.873 278.050,476.764 264.970,483.455 C251.891,490.147 259.578,508.226 253.955,513.156 C248.331,518.085 234.153,522.877 234.153,522.877 C234.153,522.877 226.966,523.639 228.140,521.274 C229.314,518.908 227.131,471.182 230.653,464.085 C234.175,456.988 255.368,454.067 260.087,450.503 C264.806,446.940 294.569,417.416 294.569,417.416 C294.569,417.416 310.602,421.691 310.602,421.691 C310.602,421.691 293.866,471.873 293.866,471.873 ZM440.573,329.910 C440.573,329.910 469.379,294.731 469.379,294.731 C469.379,294.731 478.682,323.998 482.272,334.598 C485.861,345.198 490.722,355.065 490.722,355.065 C490.722,355.065 498.103,357.569 508.371,353.342 C518.638,349.115 522.452,346.917 527.829,348.886 C533.206,350.855 541.320,354.626 541.320,354.626 C541.320,354.626 484.111,387.589 484.111,387.589 C484.111,387.589 483.842,388.589 475.900,382.186 C467.959,375.783 454.715,363.145 449.757,351.644 C444.799,340.143 440.573,329.910 440.573,329.910 Z"/>
</g>
</svg>