<?xml version="1.0" encoding="utf-8"?>
<!DOCTYPE svg PUBLIC "-//W3C//DTD SVG 1.1//EN" "http://www.w3.org/Graphics/SVG/1.1/DTD/svg11.dtd">
<svg version="1.1" baseProfile="full"
 xmlns="http://www.w3.org/2000/svg"
 width="840px" height="566px" viewBox="0 0 840 566"
 xmlns:xlink="http://www.w3.org/1999/xlink"
 xmlns:ev="http://www.w3.org/2001/xml-events" >
<defs>
<filter filterUnits="userSpaceOnUse" id="Filter_0" x="15px" y="113px" width="888px" height="713px"  >
  <feOffset in="SourceAlpha" dx="3px" dy="5.196px" />
  <feGaussianBlur result="blurOut" stdDeviation="4.359" />
  <feFlood flood-color="rgb( 0, 0, 0 )" result="floodOut" />
  <feComposite operator="atop" in="floodOut" in2="blurOut" />
  <feComponentTransfer><feFuncA type="linear" slope="0.63"/></feComponentTransfer>
  <feMerge>
    <feMergeNode/>
    <feMergeNode in="SourceGraphic"/>
  </feMerge>
</filter>
<linearGradient id="PSgrad_0" x1="0%" x2="0%" y1="100%" y2="0%">
  <stop offset="0%" stop-color="rgb(0,0,0)" stop-opacity="0.45" />
  <stop offset="100%" stop-color="rgb(255,255,255)" stop-opacity="0.45" />
</linearGradient>
<filter filterUnits="userSpaceOnUse" id="Filter_1" x="29px" y="210px" width="809px" height="394px"  >
  <feOffset in="SourceAlpha" dx="3px" dy="5.196px" />
  <feGaussianBlur result="blurOut" stdDeviation="2.449" />
  <feFlood flood-color="rgb( 0, 0, 0 )" result="floodOut" />
  <feComposite operator="atop" in="floodOut" in2="blurOut" />
  <feComponentTransfer><feFuncA type="linear" slope="0.3"/></feComponentTransfer>
  <feMerge>
    <feMergeNode/>
    <feMergeNode in="SourceGraphic"/>
  </feMerge>
</filter>
<filter filterUnits="userSpaceOnUse" id="Filter_2" x="238px" y="38px" width="469px" height="512px"  >
  <feOffset in="SourceAlpha" dx="0px" dy="0px" />
  <feGaussianBlur result="blurOut" stdDeviation="4.359" />
  <feFlood flood-color="rgb( 0, 0, 0 )" result="floodOut" />
  <feComposite operator="atop" in="floodOut" in2="blurOut" />
  <feComponentTransfer><feFuncA type="linear" slope="0.53"/></feComponentTransfer>
  <feMerge>
    <feMergeNode/>
    <feMergeNode in="SourceGraphic"/>
  </feMerge>
</filter>

</defs><g filter="url(#Filter_0)">
<path fill-rule="evenodd"  fill="rgb( 90, 194, 238 )"
 d="M27.678,806.474 C27.678,806.474 29.970,611.328 29.970,611.328 C29.970,611.328 181.063,522.979 181.063,522.979 C181.063,522.979 225.668,599.870 225.668,599.870 C225.668,599.870 763.600,289.364 763.600,289.364 C763.600,289.364 789.686,334.475 789.686,334.475 C789.686,334.475 877.193,131.863 877.193,131.863 C877.193,131.863 830.011,806.684 830.011,806.684 C830.011,806.684 27.678,806.474 27.678,806.474 Z"/>
</g>
<path fill="url(#PSgrad_0)"
 d="M27.678,806.474 C27.678,806.474 29.970,611.328 29.970,611.328 C29.970,611.328 181.063,522.979 181.063,522.979 C181.063,522.979 225.668,599.870 225.668,599.870 C225.668,599.870 763.600,289.364 763.600,289.364 C763.600,289.364 789.686,334.475 789.686,334.475 C789.686,334.475 877.193,131.863 877.193,131.863 C877.193,131.863 830.011,806.684 830.011,806.684 C830.011,806.684 27.678,806.474 27.678,806.474 Z"/>
<g filter="url(#Filter_1)">
<path fill-rule="evenodd"  fill="rgb( 255, 226, 68 )"
 d="M825.078,225.707 C825.078,225.707 788.607,309.935 788.607,309.935 C788.607,309.935 767.850,273.921 767.850,273.921 C767.850,273.921 255.504,569.952 255.504,569.952 C255.504,569.952 255.598,570.116 255.598,570.116 C255.598,570.116 231.786,583.863 231.786,583.863 C231.786,583.863 187.093,506.569 187.093,506.569 C187.093,506.569 29.877,597.268 29.877,597.268 C29.877,597.268 29.847,565.590 29.847,565.590 C29.847,565.590 173.350,482.802 173.350,482.802 C173.350,482.802 173.252,482.632 173.252,482.632 C173.252,482.632 197.064,468.885 197.064,468.885 C197.064,468.885 197.166,469.062 197.166,469.062 C197.166,469.062 197.293,468.989 197.293,468.989 C197.293,468.989 211.006,492.774 211.006,492.774 C211.006,492.774 210.909,492.829 210.909,492.829 C210.909,492.829 241.737,546.144 241.737,546.144 C241.737,546.144 754.116,250.094 754.116,250.094 C754.116,250.094 734.023,215.232 734.023,215.232 C734.023,215.232 825.078,225.707 825.078,225.707 Z"/>
</g>
<path fill-rule="evenodd"  opacity="0.2" fill="rgb( 0, 0, 0 )"
 d="M275.002,570.623 C275.002,570.623 704.758,323.001 704.758,323.001 C704.758,323.001 1084.997,980.370 1084.997,980.370 C1084.997,980.370 655.241,1227.992 655.241,1227.992 C655.241,1227.992 275.002,570.623 275.002,570.623 Z"/>
<g filter="url(#Filter_2)">
<path fill-rule="evenodd"  fill="rgb( 255, 255, 255 )"
 d="M629.953,320.932 C629.953,320.932 587.649,300.546 560.256,276.636 C532.863,252.726 524.824,244.689 524.824,244.689 C524.824,244.689 509.143,284.974 483.051,316.055 C456.960,347.135 449.698,352.164 449.698,352.164 C449.698,352.164 474.481,359.842 481.271,374.510 C488.062,389.178 483.949,408.439 476.515,416.100 C469.082,423.761 406.497,454.756 389.678,459.379 C372.860,464.003 371.491,463.102 371.491,463.102 C371.491,463.102 370.609,470.367 357.358,479.692 C344.106,489.017 321.373,493.670 321.373,493.670 C321.373,493.670 337.623,435.322 342.611,430.759 C347.599,426.196 351.629,433.164 364.806,428.105 C377.982,423.046 376.053,418.246 376.053,418.246 C376.053,418.246 438.586,397.416 438.586,397.416 C438.586,397.416 402.481,403.863 387.300,408.387 C372.120,412.911 361.800,427.303 342.416,427.493 C323.033,427.683 306.469,403.445 304.741,379.948 C303.014,356.451 312.257,346.058 324.558,326.301 C336.860,306.545 365.367,288.430 380.405,270.474 C395.444,252.519 440.096,196.386 443.058,185.389 C444.776,179.011 446.142,177.956 446.990,178.187 C447.599,178.836 447.949,179.193 447.949,179.193 C447.949,179.193 447.605,178.355 446.990,178.187 C441.416,172.243 413.243,140.789 415.852,114.920 C418.746,86.227 439.408,63.342 455.860,58.085 C472.312,52.828 524.473,56.555 539.302,79.259 C554.131,101.963 542.854,127.886 543.879,134.052 C544.903,140.218 557.564,143.058 555.216,147.789 C552.868,152.520 550.811,162.151 546.556,167.981 C542.301,173.811 536.042,179.107 535.698,184.372 C535.354,189.638 535.204,198.170 535.204,198.170 C535.204,198.170 623.656,292.467 633.483,291.873 C643.309,291.278 673.745,277.963 686.428,286.702 C699.111,295.440 629.953,320.932 629.953,320.932 ZM321.866,479.873 C321.866,479.873 306.050,484.764 292.970,491.455 C279.891,498.147 287.578,516.226 281.955,521.156 C276.331,526.085 262.153,530.877 262.153,530.877 C262.153,530.877 254.966,531.639 256.140,529.274 C257.314,526.908 255.131,479.182 258.653,472.085 C262.175,464.988 283.368,462.067 288.087,458.503 C292.806,454.940 322.569,425.416 322.569,425.416 C322.569,425.416 338.602,429.691 338.602,429.691 C338.602,429.691 321.866,479.873 321.866,479.873 ZM468.573,337.910 C468.573,337.910 497.379,302.731 497.379,302.731 C497.379,302.731 506.682,331.998 510.272,342.598 C513.861,353.198 518.722,363.065 518.722,363.065 C518.722,363.065 526.103,365.569 536.371,361.342 C546.638,357.115 550.452,354.917 555.829,356.886 C561.206,358.855 569.320,362.626 569.320,362.626 C569.320,362.626 512.111,395.589 512.111,395.589 C512.111,395.589 511.842,396.589 503.900,390.186 C495.959,383.783 482.715,371.145 477.757,359.644 C472.799,348.143 468.573,337.910 468.573,337.910 Z"/>
</g>
</svg>