<?xml version="1.0" encoding="utf-8"?>
<!DOCTYPE svg PUBLIC "-//W3C//DTD SVG 1.1//EN" "http://www.w3.org/Graphics/SVG/1.1/DTD/svg11.dtd">
<svg version="1.1" baseProfile="full"
     width="56px" height="56px" viewBox="0 0 56 56"
 xmlns="http://www.w3.org/2000/svg"
 xmlns:xlink="http://www.w3.org/1999/xlink"
 xmlns:ev="http://www.w3.org/2001/xml-events" >
<path fill-rule="evenodd"  fill="rgb( 0, 0, 0 )"
 d="M5.484,42.823 C5.484,42.823 5.834,43.173 5.834,43.173 C5.834,43.173 3.837,45.170 3.837,45.170 C3.837,45.170 4.807,46.139 4.807,46.139 C4.807,46.139 -0.009,54.611 -0.009,54.611 C-0.009,54.611 1.391,56.009 1.391,56.009 C1.391,56.009 9.860,51.192 9.860,51.192 C9.860,51.192 10.831,52.163 10.831,52.163 C10.831,52.163 12.827,50.165 12.827,50.165 C12.827,50.165 13.177,50.516 13.177,50.516 C13.177,50.516 54.363,9.331 54.363,9.331 C54.363,9.331 54.013,8.981 54.013,8.981 C54.013,8.981 56.009,6.984 56.009,6.984 C56.009,6.984 49.016,-0.009 49.016,-0.009 C49.016,-0.009 47.019,1.988 47.019,1.988 C47.019,1.988 46.669,1.638 46.669,1.638 C46.669,1.638 5.484,42.823 5.484,42.823 Z"/>
</svg>