<?xml version="1.0" encoding="utf-8"?>
<!DOCTYPE svg PUBLIC "-//W3C//DTD SVG 1.1//EN" "http://www.w3.org/Graphics/SVG/1.1/DTD/svg11.dtd">
<svg version="1.1" baseProfile="full"
     width="107px" height="113px" viewBox="0 0 107 113"
 xmlns="http://www.w3.org/2000/svg"
 xmlns:xlink="http://www.w3.org/1999/xlink"
 xmlns:ev="http://www.w3.org/2001/xml-events" >
<path fill-rule="evenodd"  fill="rgb( 0, 153, 204 )"
 d="M84.500,16.000 C84.329,16.000 84.162,15.983 84.000,15.950 C84.000,15.950 84.000,16.000 84.000,16.000 C84.000,16.000 30.000,16.000 30.000,16.000 C30.000,16.000 30.000,11.000 30.000,11.000 C30.000,11.000 84.000,11.000 84.000,11.000 C84.000,11.000 84.000,11.050 84.000,11.050 C84.162,11.017 84.329,11.000 84.500,11.000 C85.881,11.000 87.000,12.119 87.000,13.500 C87.000,14.881 85.881,16.000 84.500,16.000 ZM39.000,6.000 C39.000,6.000 29.000,6.000 29.000,6.000 C29.000,6.000 29.000,4.000 29.000,4.000 C29.000,4.000 35.000,4.000 35.000,4.000 C35.000,4.000 35.000,3.000 35.000,3.000 C35.000,3.000 29.000,3.000 29.000,3.000 C29.000,3.000 29.000,-0.000 29.000,-0.000 C29.000,-0.000 44.000,-0.000 44.000,-0.000 C44.000,-0.000 44.000,10.000 44.000,10.000 C44.000,10.000 39.000,10.000 39.000,10.000 C39.000,10.000 39.000,6.000 39.000,6.000 ZM38.000,10.000 C38.000,10.000 29.000,10.000 29.000,10.000 C29.000,10.000 29.000,17.000 29.000,17.000 C29.000,17.000 38.000,17.000 38.000,17.000 C38.000,17.000 38.000,20.000 38.000,20.000 C38.000,20.000 26.000,20.000 26.000,20.000 C26.000,20.000 26.000,7.000 26.000,7.000 C26.000,7.000 38.000,7.000 38.000,7.000 C38.000,7.000 38.000,10.000 38.000,10.000 ZM39.000,17.000 C39.000,17.000 44.000,17.000 44.000,17.000 C44.000,17.000 44.000,113.000 44.000,113.000 C44.000,113.000 29.000,113.000 29.000,113.000 C29.000,113.000 29.000,109.000 29.000,109.000 C29.000,109.000 35.000,109.000 35.000,109.000 C35.000,109.000 35.000,108.000 35.000,108.000 C35.000,108.000 29.000,108.000 29.000,108.000 C29.000,108.000 29.000,105.000 29.000,105.000 C29.000,105.000 35.000,105.000 35.000,105.000 C35.000,105.000 35.000,104.000 35.000,104.000 C35.000,104.000 29.000,104.000 29.000,104.000 C29.000,104.000 29.000,101.000 29.000,101.000 C29.000,101.000 35.000,101.000 35.000,101.000 C35.000,101.000 35.000,100.000 35.000,100.000 C35.000,100.000 29.000,100.000 29.000,100.000 C29.000,100.000 29.000,97.000 29.000,97.000 C29.000,97.000 35.000,97.000 35.000,97.000 C35.000,97.000 35.000,96.000 35.000,96.000 C35.000,96.000 29.000,96.000 29.000,96.000 C29.000,96.000 29.000,93.000 29.000,93.000 C29.000,93.000 40.000,93.000 40.000,93.000 C40.000,93.000 40.000,91.000 40.000,91.000 C40.000,91.000 29.000,91.000 29.000,91.000 C29.000,91.000 29.000,88.000 29.000,88.000 C29.000,88.000 35.000,88.000 35.000,88.000 C35.000,88.000 35.000,87.000 35.000,87.000 C35.000,87.000 29.000,87.000 29.000,87.000 C29.000,87.000 29.000,84.000 29.000,84.000 C29.000,84.000 35.000,84.000 35.000,84.000 C35.000,84.000 35.000,83.000 35.000,83.000 C35.000,83.000 29.000,83.000 29.000,83.000 C29.000,83.000 29.000,80.000 29.000,80.000 C29.000,80.000 35.000,80.000 35.000,80.000 C35.000,80.000 35.000,79.000 35.000,79.000 C35.000,79.000 29.000,79.000 29.000,79.000 C29.000,79.000 29.000,76.000 29.000,76.000 C29.000,76.000 35.000,76.000 35.000,76.000 C35.000,76.000 35.000,75.000 35.000,75.000 C35.000,75.000 29.000,75.000 29.000,75.000 C29.000,75.000 29.000,72.000 29.000,72.000 C29.000,72.000 40.000,72.000 40.000,72.000 C40.000,72.000 40.000,70.000 40.000,70.000 C40.000,70.000 29.000,70.000 29.000,70.000 C29.000,70.000 29.000,67.000 29.000,67.000 C29.000,67.000 35.000,67.000 35.000,67.000 C35.000,67.000 35.000,66.000 35.000,66.000 C35.000,66.000 29.000,66.000 29.000,66.000 C29.000,66.000 29.000,63.000 29.000,63.000 C29.000,63.000 35.000,63.000 35.000,63.000 C35.000,63.000 35.000,62.000 35.000,62.000 C35.000,62.000 29.000,62.000 29.000,62.000 C29.000,62.000 29.000,59.000 29.000,59.000 C29.000,59.000 35.000,59.000 35.000,59.000 C35.000,59.000 35.000,58.000 35.000,58.000 C35.000,58.000 29.000,58.000 29.000,58.000 C29.000,58.000 29.000,55.000 29.000,55.000 C29.000,55.000 35.000,55.000 35.000,55.000 C35.000,55.000 35.000,54.000 35.000,54.000 C35.000,54.000 29.000,54.000 29.000,54.000 C29.000,54.000 29.000,51.000 29.000,51.000 C29.000,51.000 40.000,51.000 40.000,51.000 C40.000,51.000 40.000,49.000 40.000,49.000 C40.000,49.000 29.000,49.000 29.000,49.000 C29.000,49.000 29.000,46.000 29.000,46.000 C29.000,46.000 35.000,46.000 35.000,46.000 C35.000,46.000 35.000,45.000 35.000,45.000 C35.000,45.000 29.000,45.000 29.000,45.000 C29.000,45.000 29.000,42.000 29.000,42.000 C29.000,42.000 35.000,42.000 35.000,42.000 C35.000,42.000 35.000,41.000 35.000,41.000 C35.000,41.000 29.000,41.000 29.000,41.000 C29.000,41.000 29.000,38.000 29.000,38.000 C29.000,38.000 35.000,38.000 35.000,38.000 C35.000,38.000 35.000,37.000 35.000,37.000 C35.000,37.000 29.000,37.000 29.000,37.000 C29.000,37.000 29.000,34.000 29.000,34.000 C29.000,34.000 35.000,34.000 35.000,34.000 C35.000,34.000 35.000,33.000 35.000,33.000 C35.000,33.000 29.000,33.000 29.000,33.000 C29.000,33.000 29.000,30.000 29.000,30.000 C29.000,30.000 40.000,30.000 40.000,30.000 C40.000,30.000 40.000,28.000 40.000,28.000 C40.000,28.000 29.000,28.000 29.000,28.000 C29.000,28.000 29.000,25.000 29.000,25.000 C29.000,25.000 35.000,25.000 35.000,25.000 C35.000,25.000 35.000,24.000 35.000,24.000 C35.000,24.000 29.000,24.000 29.000,24.000 C29.000,24.000 29.000,21.000 29.000,21.000 C29.000,21.000 39.000,21.000 39.000,21.000 C39.000,21.000 39.000,17.000 39.000,17.000 Z"/>
</svg>