<?xml version="1.0" encoding="utf-8"?>
<!DOCTYPE svg PUBLIC "-//W3C//DTD SVG 1.1//EN" "http://www.w3.org/Graphics/SVG/1.1/DTD/svg11.dtd">
<svg version="1.1" baseProfile="full"
     width="70px" height="70px" viewBox="0 0 70 70"
 xmlns="http://www.w3.org/2000/svg"
 xmlns:xlink="http://www.w3.org/1999/xlink"
 xmlns:ev="http://www.w3.org/2001/xml-events" >
<path fill-rule="evenodd"  fill="rgb( 37, 54, 61 )"
 d="M32.515,43.840 C33.949,45.006 36.275,45.006 37.710,43.840 C37.710,43.840 70.000,17.598 70.000,17.598 C70.000,17.598 70.000,53.701 70.000,53.701 C70.000,54.971 68.970,56.000 67.700,56.000 C67.700,56.000 3.300,56.000 3.300,56.000 C2.030,56.000 1.000,54.971 1.000,53.701 C1.000,53.701 1.000,18.228 1.000,18.228 C1.000,18.228 32.515,43.840 32.515,43.840 ZM68.018,15.032 C68.018,15.032 37.533,39.807 37.533,39.807 C36.197,40.894 34.029,40.894 32.692,39.807 C32.692,39.807 2.396,15.185 2.396,15.185 C2.674,15.067 2.979,15.000 3.300,15.000 C3.300,15.000 67.700,15.000 67.700,15.000 C67.809,15.000 67.913,15.017 68.018,15.032 Z"/>
</svg>