<?xml version="1.0" encoding="utf-8"?>
<!DOCTYPE svg PUBLIC "-//W3C//DTD SVG 1.1//EN" "http://www.w3.org/Graphics/SVG/1.1/DTD/svg11.dtd">
<svg version="1.1" baseProfile="full"
     width="17px" height="71px" viewBox="0 0 17 71"
 xmlns="http://www.w3.org/2000/svg"
 xmlns:xlink="http://www.w3.org/1999/xlink"
 xmlns:ev="http://www.w3.org/2001/xml-events" >
<path fill-rule="evenodd"  fill="rgb( 255, 255, 255 )"
 d="M-0.000,71.000 C-0.000,71.000 -0.000,56.031 -0.000,56.031 C-0.000,56.031 17.000,56.031 17.000,56.031 C17.000,56.031 17.000,71.000 17.000,71.000 C17.000,71.000 -0.000,71.000 -0.000,71.000 ZM-0.000,28.094 C-0.000,28.094 17.000,28.094 17.000,28.094 C17.000,28.094 17.000,43.125 17.000,43.125 C17.000,43.125 -0.000,43.125 -0.000,43.125 C-0.000,43.125 -0.000,28.094 -0.000,28.094 ZM-0.000,0.000 C-0.000,0.000 17.000,0.000 17.000,0.000 C17.000,0.000 17.000,14.969 17.000,14.969 C17.000,14.969 -0.000,14.969 -0.000,14.969 C-0.000,14.969 -0.000,0.000 -0.000,0.000 Z"/>
</svg>