<?xml version="1.0" encoding="utf-8"?>
<!DOCTYPE svg PUBLIC "-//W3C//DTD SVG 1.1//EN" "http://www.w3.org/Graphics/SVG/1.1/DTD/svg11.dtd">
<svg version="1.1" baseProfile="full"
     width="50px" height="38px" viewBox="0 0 50 38"
 xmlns="http://www.w3.org/2000/svg"
 xmlns:xlink="http://www.w3.org/1999/xlink"
 xmlns:ev="http://www.w3.org/2001/xml-events" >
<path fill-rule="evenodd"  fill="rgb( 255, 255, 255 )"
 d="M18.145,37.502 C18.145,37.502 12.586,31.924 12.586,31.924 C12.586,31.924 0.470,19.767 0.470,19.767 C-0.160,19.135 -0.160,18.110 0.470,17.478 C0.470,17.478 6.029,11.900 6.029,11.900 C6.659,11.268 7.680,11.268 8.310,11.900 C8.310,11.900 19.285,22.913 19.285,22.913 C19.285,22.913 41.664,0.458 41.664,0.458 C42.294,-0.174 43.315,-0.174 43.945,0.458 C43.945,0.458 49.504,6.036 49.504,6.036 C50.133,6.668 50.133,7.693 49.504,8.325 C49.504,8.325 25.985,31.924 25.985,31.924 C25.985,31.924 20.426,37.502 20.426,37.502 C19.796,38.134 18.775,38.134 18.145,37.502 Z"/>
</svg>