<?xml version="1.0" encoding="utf-8"?>
<!DOCTYPE svg PUBLIC "-//W3C//DTD SVG 1.1//EN" "http://www.w3.org/Graphics/SVG/1.1/DTD/svg11.dtd">
<svg version="1.1" baseProfile="full"
     width="70px" height="70px" viewBox="0 0 70 70"
 xmlns="http://www.w3.org/2000/svg"
 xmlns:xlink="http://www.w3.org/1999/xlink"
 xmlns:ev="http://www.w3.org/2001/xml-events" >
<path fill-rule="evenodd"  fill="rgb( 37, 54, 61 )"
 d="M13.997,35.303 C13.997,35.303 26.951,24.990 26.951,24.990 C26.951,24.990 27.014,31.392 27.014,31.392 C27.014,31.392 45.989,31.392 45.989,31.392 C45.989,31.392 45.989,39.596 45.989,39.596 C45.989,39.596 27.014,39.596 27.014,39.596 C27.014,39.596 26.951,45.995 26.951,45.995 C26.951,45.995 13.997,35.303 13.997,35.303 ZM30.367,58.313 C30.367,58.313 30.758,58.313 30.758,58.313 C30.758,58.313 40.550,58.313 40.550,58.313 C40.550,58.313 49.950,58.313 49.950,58.313 C50.599,58.313 51.125,57.785 51.125,57.133 C51.125,57.133 51.125,13.867 51.125,13.867 C51.125,13.215 50.599,12.687 49.950,12.687 C49.950,12.687 40.550,12.687 40.550,12.687 C40.550,12.687 30.758,12.687 30.758,12.687 C30.758,12.687 30.367,12.687 30.367,12.687 C30.150,12.687 29.975,12.511 29.975,12.293 C29.975,12.293 29.975,6.393 29.975,6.393 C29.975,6.176 30.150,6.000 30.367,6.000 C30.367,6.000 40.550,6.000 40.550,6.000 C40.550,6.000 40.550,6.000 40.550,6.000 C40.550,6.000 55.825,6.000 55.825,6.000 C56.474,6.000 57.000,6.528 57.000,7.180 C57.000,7.180 57.000,63.820 57.000,63.820 C57.000,64.472 56.474,65.000 55.825,65.000 C55.825,65.000 40.550,65.000 40.550,65.000 C40.550,65.000 30.758,65.000 30.758,65.000 C30.758,65.000 30.367,65.000 30.367,65.000 C30.150,65.000 29.975,64.824 29.975,64.607 C29.975,64.607 29.975,58.707 29.975,58.707 C29.975,58.489 30.150,58.313 30.367,58.313 Z"/>
</svg>