<?xml version="1.0" encoding="utf-8"?>
<!DOCTYPE svg PUBLIC "-//W3C//DTD SVG 1.1//EN" "http://www.w3.org/Graphics/SVG/1.1/DTD/svg11.dtd">
<svg version="1.1" baseProfile="full"
     width="58px" height="61px" viewBox="0 0 58 61"
 xmlns="http://www.w3.org/2000/svg"
 xmlns:xlink="http://www.w3.org/1999/xlink"
 xmlns:ev="http://www.w3.org/2001/xml-events" >
<path fill-rule="evenodd"  fill="rgb( 34, 34, 34 )"
 d="M26.502,60.006 C26.502,60.006 21.319,54.821 21.319,54.821 C21.319,54.821 52.815,23.311 52.815,23.311 C52.815,23.311 57.998,28.496 57.998,28.496 C57.998,28.496 26.502,60.006 26.502,60.006 ZM38.171,33.724 C38.171,33.724 35.692,33.724 35.692,33.724 C35.692,33.724 5.453,33.724 5.453,33.724 C5.453,33.724 5.453,36.699 5.453,36.699 C5.453,36.699 36.351,36.699 36.351,36.699 C36.351,36.699 32.386,40.667 32.386,40.667 C32.386,40.667 5.453,40.667 5.453,40.667 C5.453,40.667 5.453,43.642 5.453,43.642 C5.453,43.642 29.411,43.642 29.411,43.642 C29.411,43.642 24.950,48.106 24.950,48.106 C24.950,48.106 5.453,48.106 5.453,48.106 C5.453,48.106 5.453,51.081 5.453,51.081 C5.453,51.081 21.975,51.081 21.975,51.081 C21.975,51.081 17.514,55.545 17.514,55.545 C17.514,55.545 1.487,55.545 1.487,55.545 C0.666,55.545 0.000,54.879 0.000,54.057 C0.000,54.057 0.000,1.488 0.000,1.488 C0.000,0.666 0.666,0.000 1.487,0.000 C1.487,0.000 42.137,0.000 42.137,0.000 C42.958,0.000 43.624,0.666 43.624,1.488 C43.624,1.488 43.624,29.424 43.624,29.424 C43.624,29.424 39.326,33.724 39.326,33.724 C39.326,33.724 38.171,33.724 38.171,33.724 ZM38.171,4.463 C38.171,4.463 5.453,4.463 5.453,4.463 C5.453,4.463 5.453,7.439 5.453,7.439 C5.453,7.439 38.171,7.439 38.171,7.439 C38.171,7.439 38.171,4.463 38.171,4.463 ZM38.171,11.902 C38.171,11.902 5.453,11.902 5.453,11.902 C5.453,11.902 5.453,14.878 5.453,14.878 C5.453,14.878 38.171,14.878 38.171,14.878 C38.171,14.878 38.171,11.902 38.171,11.902 ZM38.171,19.341 C38.171,19.341 5.453,19.341 5.453,19.341 C5.453,19.341 5.453,22.317 5.453,22.317 C5.453,22.317 38.171,22.317 38.171,22.317 C38.171,22.317 38.171,19.341 38.171,19.341 ZM38.171,26.285 C38.171,26.285 5.453,26.285 5.453,26.285 C5.453,26.285 5.453,29.260 5.453,29.260 C5.453,29.260 38.171,29.260 38.171,29.260 C38.171,29.260 38.171,26.285 38.171,26.285 ZM20.846,60.752 C20.846,60.752 20.821,55.545 20.821,55.545 C20.821,55.545 26.274,61.000 26.274,61.000 C26.274,61.000 20.846,60.752 20.846,60.752 ZM43.624,54.057 C43.624,54.879 42.958,55.545 42.137,55.545 C42.137,55.545 35.033,55.545 35.033,55.545 C35.033,55.545 43.624,46.950 43.624,46.950 C43.624,46.950 43.624,54.057 43.624,54.057 Z"/>
</svg>